<?xml version="1.0" encoding="utf-8" standalone="no"?>
<!DOCTYPE svg PUBLIC "-//W3C//DTD SVG 1.1//EN"
  "http://www.w3.org/Graphics/SVG/1.1/DTD/svg11.dtd">
<svg xmlns:xlink="http://www.w3.org/1999/xlink" width="437.432812pt" height="310.47525pt" viewBox="0 0 437.432812 310.47525" xmlns="http://www.w3.org/2000/svg" version="1.1">
 <metadata>
  <rdf:RDF xmlns:dc="http://purl.org/dc/elements/1.1/" xmlns:cc="http://creativecommons.org/ns#" xmlns:rdf="http://www.w3.org/1999/02/22-rdf-syntax-ns#">
   <cc:Work>
    <dc:type rdf:resource="http://purl.org/dc/dcmitype/StillImage"/>
    <dc:date>2026-05-11T23:33:21.954344</dc:date>
    <dc:format>image/svg+xml</dc:format>
    <dc:creator>
     <cc:Agent>
      <dc:title>Matplotlib v3.10.9, https://matplotlib.org/</dc:title>
     </cc:Agent>
    </dc:creator>
   </cc:Work>
  </rdf:RDF>
 </metadata>
 <defs>
  <style type="text/css">*{stroke-linejoin: round; stroke-linecap: butt}</style>
 </defs>
 <g id="figure_1">
  <g id="patch_1">
   <path d="M 0 310.47525 
L 437.432812 310.47525 
L 437.432812 0 
L 0 0 
z
" style="fill: #ffffff"/>
  </g>
  <g id="axes_1">
   <g id="patch_2">
    <path d="M 39.632812 275.822437 
L 430.232813 275.822437 
L 430.232813 20.798437 
L 39.632812 20.798437 
z
" style="fill: #ffffff"/>
   </g>
   <g id="matplotlib.axis_1">
    <g id="xtick_1">
     <g id="line2d_1">
      <path d="M 39.632812 275.822437 
L 39.632812 20.798437 
" clip-path="url(#pca0730b9fa)" style="fill: none; stroke: #dbdbdb; stroke-width: 0.6; stroke-linecap: square"/>
     </g>
     <g id="line2d_2">
      <defs>
       <path id="m851fc8b673" d="M 0 0 
L 0 3.5 
" style="stroke: #000000; stroke-width: 0.8"/>
      </defs>
      <g>
       <use xlink:href="#m851fc8b673" x="39.632812" y="275.822437" style="stroke: #000000; stroke-width: 0.8"/>
      </g>
     </g>
     <g id="text_1">
      <!-- 0.2 -->
      <g transform="translate(33.271563 288.901187) scale(0.08 -0.08)">
       <defs>
        <path id="DejaVuSans-30" d="M 2034 4250 
Q 1547 4250 1301 3770 
Q 1056 3291 1056 2328 
Q 1056 1369 1301 889 
Q 1547 409 2034 409 
Q 2525 409 2770 889 
Q 3016 1369 3016 2328 
Q 3016 3291 2770 3770 
Q 2525 4250 2034 4250 
z
M 2034 4750 
Q 2819 4750 3233 4129 
Q 3647 3509 3647 2328 
Q 3647 1150 3233 529 
Q 2819 -91 2034 -91 
Q 1250 -91 836 529 
Q 422 1150 422 2328 
Q 422 3509 836 4129 
Q 1250 4750 2034 4750 
z
" transform="scale(0.015625)"/>
        <path id="DejaVuSans-2e" d="M 684 794 
L 1344 794 
L 1344 0 
L 684 0 
L 684 794 
z
" transform="scale(0.015625)"/>
        <path id="DejaVuSans-32" d="M 1228 531 
L 3431 531 
L 3431 0 
L 469 0 
L 469 531 
Q 828 903 1448 1529 
Q 2069 2156 2228 2338 
Q 2531 2678 2651 2914 
Q 2772 3150 2772 3378 
Q 2772 3750 2511 3984 
Q 2250 4219 1831 4219 
Q 1534 4219 1204 4116 
Q 875 4013 500 3803 
L 500 4441 
Q 881 4594 1212 4672 
Q 1544 4750 1819 4750 
Q 2544 4750 2975 4387 
Q 3406 4025 3406 3419 
Q 3406 3131 3298 2873 
Q 3191 2616 2906 2266 
Q 2828 2175 2409 1742 
Q 1991 1309 1228 531 
z
" transform="scale(0.015625)"/>
       </defs>
       <use xlink:href="#DejaVuSans-30"/>
       <use xlink:href="#DejaVuSans-2e" transform="translate(63.623047 0)"/>
       <use xlink:href="#DejaVuSans-32" transform="translate(95.410156 0)"/>
      </g>
     </g>
    </g>
    <g id="xtick_2">
     <g id="line2d_3">
      <path d="M 110.650994 275.822437 
L 110.650994 20.798437 
" clip-path="url(#pca0730b9fa)" style="fill: none; stroke: #dbdbdb; stroke-width: 0.6; stroke-linecap: square"/>
     </g>
     <g id="line2d_4">
      <g>
       <use xlink:href="#m851fc8b673" x="110.650994" y="275.822437" style="stroke: #000000; stroke-width: 0.8"/>
      </g>
     </g>
     <g id="text_2">
      <!-- 0.4 -->
      <g transform="translate(104.289744 288.901187) scale(0.08 -0.08)">
       <defs>
        <path id="DejaVuSans-34" d="M 2419 4116 
L 825 1625 
L 2419 1625 
L 2419 4116 
z
M 2253 4666 
L 3047 4666 
L 3047 1625 
L 3713 1625 
L 3713 1100 
L 3047 1100 
L 3047 0 
L 2419 0 
L 2419 1100 
L 313 1100 
L 313 1709 
L 2253 4666 
z
" transform="scale(0.015625)"/>
       </defs>
       <use xlink:href="#DejaVuSans-30"/>
       <use xlink:href="#DejaVuSans-2e" transform="translate(63.623047 0)"/>
       <use xlink:href="#DejaVuSans-34" transform="translate(95.410156 0)"/>
      </g>
     </g>
    </g>
    <g id="xtick_3">
     <g id="line2d_5">
      <path d="M 181.669176 275.822437 
L 181.669176 20.798437 
" clip-path="url(#pca0730b9fa)" style="fill: none; stroke: #dbdbdb; stroke-width: 0.6; stroke-linecap: square"/>
     </g>
     <g id="line2d_6">
      <g>
       <use xlink:href="#m851fc8b673" x="181.669176" y="275.822437" style="stroke: #000000; stroke-width: 0.8"/>
      </g>
     </g>
     <g id="text_3">
      <!-- 0.6 -->
      <g transform="translate(175.307926 288.901187) scale(0.08 -0.08)">
       <defs>
        <path id="DejaVuSans-36" d="M 2113 2584 
Q 1688 2584 1439 2293 
Q 1191 2003 1191 1497 
Q 1191 994 1439 701 
Q 1688 409 2113 409 
Q 2538 409 2786 701 
Q 3034 994 3034 1497 
Q 3034 2003 2786 2293 
Q 2538 2584 2113 2584 
z
M 3366 4563 
L 3366 3988 
Q 3128 4100 2886 4159 
Q 2644 4219 2406 4219 
Q 1781 4219 1451 3797 
Q 1122 3375 1075 2522 
Q 1259 2794 1537 2939 
Q 1816 3084 2150 3084 
Q 2853 3084 3261 2657 
Q 3669 2231 3669 1497 
Q 3669 778 3244 343 
Q 2819 -91 2113 -91 
Q 1303 -91 875 529 
Q 447 1150 447 2328 
Q 447 3434 972 4092 
Q 1497 4750 2381 4750 
Q 2619 4750 2861 4703 
Q 3103 4656 3366 4563 
z
" transform="scale(0.015625)"/>
       </defs>
       <use xlink:href="#DejaVuSans-30"/>
       <use xlink:href="#DejaVuSans-2e" transform="translate(63.623047 0)"/>
       <use xlink:href="#DejaVuSans-36" transform="translate(95.410156 0)"/>
      </g>
     </g>
    </g>
    <g id="xtick_4">
     <g id="line2d_7">
      <path d="M 252.687358 275.822437 
L 252.687358 20.798437 
" clip-path="url(#pca0730b9fa)" style="fill: none; stroke: #dbdbdb; stroke-width: 0.6; stroke-linecap: square"/>
     </g>
     <g id="line2d_8">
      <g>
       <use xlink:href="#m851fc8b673" x="252.687358" y="275.822437" style="stroke: #000000; stroke-width: 0.8"/>
      </g>
     </g>
     <g id="text_4">
      <!-- 0.8 -->
      <g transform="translate(246.326108 288.901187) scale(0.08 -0.08)">
       <defs>
        <path id="DejaVuSans-38" d="M 2034 2216 
Q 1584 2216 1326 1975 
Q 1069 1734 1069 1313 
Q 1069 891 1326 650 
Q 1584 409 2034 409 
Q 2484 409 2743 651 
Q 3003 894 3003 1313 
Q 3003 1734 2745 1975 
Q 2488 2216 2034 2216 
z
M 1403 2484 
Q 997 2584 770 2862 
Q 544 3141 544 3541 
Q 544 4100 942 4425 
Q 1341 4750 2034 4750 
Q 2731 4750 3128 4425 
Q 3525 4100 3525 3541 
Q 3525 3141 3298 2862 
Q 3072 2584 2669 2484 
Q 3125 2378 3379 2068 
Q 3634 1759 3634 1313 
Q 3634 634 3220 271 
Q 2806 -91 2034 -91 
Q 1263 -91 848 271 
Q 434 634 434 1313 
Q 434 1759 690 2068 
Q 947 2378 1403 2484 
z
M 1172 3481 
Q 1172 3119 1398 2916 
Q 1625 2713 2034 2713 
Q 2441 2713 2670 2916 
Q 2900 3119 2900 3481 
Q 2900 3844 2670 4047 
Q 2441 4250 2034 4250 
Q 1625 4250 1398 4047 
Q 1172 3844 1172 3481 
z
" transform="scale(0.015625)"/>
       </defs>
       <use xlink:href="#DejaVuSans-30"/>
       <use xlink:href="#DejaVuSans-2e" transform="translate(63.623047 0)"/>
       <use xlink:href="#DejaVuSans-38" transform="translate(95.410156 0)"/>
      </g>
     </g>
    </g>
    <g id="xtick_5">
     <g id="line2d_9">
      <path d="M 323.70554 275.822437 
L 323.70554 20.798437 
" clip-path="url(#pca0730b9fa)" style="fill: none; stroke: #dbdbdb; stroke-width: 0.6; stroke-linecap: square"/>
     </g>
     <g id="line2d_10">
      <g>
       <use xlink:href="#m851fc8b673" x="323.70554" y="275.822437" style="stroke: #000000; stroke-width: 0.8"/>
      </g>
     </g>
     <g id="text_5">
      <!-- 1.0 -->
      <g transform="translate(317.34429 288.901187) scale(0.08 -0.08)">
       <defs>
        <path id="DejaVuSans-31" d="M 794 531 
L 1825 531 
L 1825 4091 
L 703 3866 
L 703 4441 
L 1819 4666 
L 2450 4666 
L 2450 531 
L 3481 531 
L 3481 0 
L 794 0 
L 794 531 
z
" transform="scale(0.015625)"/>
       </defs>
       <use xlink:href="#DejaVuSans-31"/>
       <use xlink:href="#DejaVuSans-2e" transform="translate(63.623047 0)"/>
       <use xlink:href="#DejaVuSans-30" transform="translate(95.410156 0)"/>
      </g>
     </g>
    </g>
    <g id="xtick_6">
     <g id="line2d_11">
      <path d="M 394.723722 275.822437 
L 394.723722 20.798437 
" clip-path="url(#pca0730b9fa)" style="fill: none; stroke: #dbdbdb; stroke-width: 0.6; stroke-linecap: square"/>
     </g>
     <g id="line2d_12">
      <g>
       <use xlink:href="#m851fc8b673" x="394.723722" y="275.822437" style="stroke: #000000; stroke-width: 0.8"/>
      </g>
     </g>
     <g id="text_6">
      <!-- 1.2 -->
      <g transform="translate(388.362472 288.901187) scale(0.08 -0.08)">
       <use xlink:href="#DejaVuSans-31"/>
       <use xlink:href="#DejaVuSans-2e" transform="translate(63.623047 0)"/>
       <use xlink:href="#DejaVuSans-32" transform="translate(95.410156 0)"/>
      </g>
     </g>
    </g>
    <g id="text_7">
     <!-- Available structural budget ratio -->
     <g transform="translate(162.184687 301.403531) scale(0.09 -0.09)">
      <defs>
       <path id="DejaVuSans-41" d="M 2188 4044 
L 1331 1722 
L 3047 1722 
L 2188 4044 
z
M 1831 4666 
L 2547 4666 
L 4325 0 
L 3669 0 
L 3244 1197 
L 1141 1197 
L 716 0 
L 50 0 
L 1831 4666 
z
" transform="scale(0.015625)"/>
       <path id="DejaVuSans-76" d="M 191 3500 
L 800 3500 
L 1894 563 
L 2988 3500 
L 3597 3500 
L 2284 0 
L 1503 0 
L 191 3500 
z
" transform="scale(0.015625)"/>
       <path id="DejaVuSans-61" d="M 2194 1759 
Q 1497 1759 1228 1600 
Q 959 1441 959 1056 
Q 959 750 1161 570 
Q 1363 391 1709 391 
Q 2188 391 2477 730 
Q 2766 1069 2766 1631 
L 2766 1759 
L 2194 1759 
z
M 3341 1997 
L 3341 0 
L 2766 0 
L 2766 531 
Q 2569 213 2275 61 
Q 1981 -91 1556 -91 
Q 1019 -91 701 211 
Q 384 513 384 1019 
Q 384 1609 779 1909 
Q 1175 2209 1959 2209 
L 2766 2209 
L 2766 2266 
Q 2766 2663 2505 2880 
Q 2244 3097 1772 3097 
Q 1472 3097 1187 3025 
Q 903 2953 641 2809 
L 641 3341 
Q 956 3463 1253 3523 
Q 1550 3584 1831 3584 
Q 2591 3584 2966 3190 
Q 3341 2797 3341 1997 
z
" transform="scale(0.015625)"/>
       <path id="DejaVuSans-69" d="M 603 3500 
L 1178 3500 
L 1178 0 
L 603 0 
L 603 3500 
z
M 603 4863 
L 1178 4863 
L 1178 4134 
L 603 4134 
L 603 4863 
z
" transform="scale(0.015625)"/>
       <path id="DejaVuSans-6c" d="M 603 4863 
L 1178 4863 
L 1178 0 
L 603 0 
L 603 4863 
z
" transform="scale(0.015625)"/>
       <path id="DejaVuSans-62" d="M 3116 1747 
Q 3116 2381 2855 2742 
Q 2594 3103 2138 3103 
Q 1681 3103 1420 2742 
Q 1159 2381 1159 1747 
Q 1159 1113 1420 752 
Q 1681 391 2138 391 
Q 2594 391 2855 752 
Q 3116 1113 3116 1747 
z
M 1159 2969 
Q 1341 3281 1617 3432 
Q 1894 3584 2278 3584 
Q 2916 3584 3314 3078 
Q 3713 2572 3713 1747 
Q 3713 922 3314 415 
Q 2916 -91 2278 -91 
Q 1894 -91 1617 61 
Q 1341 213 1159 525 
L 1159 0 
L 581 0 
L 581 4863 
L 1159 4863 
L 1159 2969 
z
" transform="scale(0.015625)"/>
       <path id="DejaVuSans-65" d="M 3597 1894 
L 3597 1613 
L 953 1613 
Q 991 1019 1311 708 
Q 1631 397 2203 397 
Q 2534 397 2845 478 
Q 3156 559 3463 722 
L 3463 178 
Q 3153 47 2828 -22 
Q 2503 -91 2169 -91 
Q 1331 -91 842 396 
Q 353 884 353 1716 
Q 353 2575 817 3079 
Q 1281 3584 2069 3584 
Q 2775 3584 3186 3129 
Q 3597 2675 3597 1894 
z
M 3022 2063 
Q 3016 2534 2758 2815 
Q 2500 3097 2075 3097 
Q 1594 3097 1305 2825 
Q 1016 2553 972 2059 
L 3022 2063 
z
" transform="scale(0.015625)"/>
       <path id="DejaVuSans-20" transform="scale(0.015625)"/>
       <path id="DejaVuSans-73" d="M 2834 3397 
L 2834 2853 
Q 2591 2978 2328 3040 
Q 2066 3103 1784 3103 
Q 1356 3103 1142 2972 
Q 928 2841 928 2578 
Q 928 2378 1081 2264 
Q 1234 2150 1697 2047 
L 1894 2003 
Q 2506 1872 2764 1633 
Q 3022 1394 3022 966 
Q 3022 478 2636 193 
Q 2250 -91 1575 -91 
Q 1294 -91 989 -36 
Q 684 19 347 128 
L 347 722 
Q 666 556 975 473 
Q 1284 391 1588 391 
Q 1994 391 2212 530 
Q 2431 669 2431 922 
Q 2431 1156 2273 1281 
Q 2116 1406 1581 1522 
L 1381 1569 
Q 847 1681 609 1914 
Q 372 2147 372 2553 
Q 372 3047 722 3315 
Q 1072 3584 1716 3584 
Q 2034 3584 2315 3537 
Q 2597 3491 2834 3397 
z
" transform="scale(0.015625)"/>
       <path id="DejaVuSans-74" d="M 1172 4494 
L 1172 3500 
L 2356 3500 
L 2356 3053 
L 1172 3053 
L 1172 1153 
Q 1172 725 1289 603 
Q 1406 481 1766 481 
L 2356 481 
L 2356 0 
L 1766 0 
Q 1100 0 847 248 
Q 594 497 594 1153 
L 594 3053 
L 172 3053 
L 172 3500 
L 594 3500 
L 594 4494 
L 1172 4494 
z
" transform="scale(0.015625)"/>
       <path id="DejaVuSans-72" d="M 2631 2963 
Q 2534 3019 2420 3045 
Q 2306 3072 2169 3072 
Q 1681 3072 1420 2755 
Q 1159 2438 1159 1844 
L 1159 0 
L 581 0 
L 581 3500 
L 1159 3500 
L 1159 2956 
Q 1341 3275 1631 3429 
Q 1922 3584 2338 3584 
Q 2397 3584 2469 3576 
Q 2541 3569 2628 3553 
L 2631 2963 
z
" transform="scale(0.015625)"/>
       <path id="DejaVuSans-75" d="M 544 1381 
L 544 3500 
L 1119 3500 
L 1119 1403 
Q 1119 906 1312 657 
Q 1506 409 1894 409 
Q 2359 409 2629 706 
Q 2900 1003 2900 1516 
L 2900 3500 
L 3475 3500 
L 3475 0 
L 2900 0 
L 2900 538 
Q 2691 219 2414 64 
Q 2138 -91 1772 -91 
Q 1169 -91 856 284 
Q 544 659 544 1381 
z
M 1991 3584 
L 1991 3584 
z
" transform="scale(0.015625)"/>
       <path id="DejaVuSans-63" d="M 3122 3366 
L 3122 2828 
Q 2878 2963 2633 3030 
Q 2388 3097 2138 3097 
Q 1578 3097 1268 2742 
Q 959 2388 959 1747 
Q 959 1106 1268 751 
Q 1578 397 2138 397 
Q 2388 397 2633 464 
Q 2878 531 3122 666 
L 3122 134 
Q 2881 22 2623 -34 
Q 2366 -91 2075 -91 
Q 1284 -91 818 406 
Q 353 903 353 1747 
Q 353 2603 823 3093 
Q 1294 3584 2113 3584 
Q 2378 3584 2631 3529 
Q 2884 3475 3122 3366 
z
" transform="scale(0.015625)"/>
       <path id="DejaVuSans-64" d="M 2906 2969 
L 2906 4863 
L 3481 4863 
L 3481 0 
L 2906 0 
L 2906 525 
Q 2725 213 2448 61 
Q 2172 -91 1784 -91 
Q 1150 -91 751 415 
Q 353 922 353 1747 
Q 353 2572 751 3078 
Q 1150 3584 1784 3584 
Q 2172 3584 2448 3432 
Q 2725 3281 2906 2969 
z
M 947 1747 
Q 947 1113 1208 752 
Q 1469 391 1925 391 
Q 2381 391 2643 752 
Q 2906 1113 2906 1747 
Q 2906 2381 2643 2742 
Q 2381 3103 1925 3103 
Q 1469 3103 1208 2742 
Q 947 2381 947 1747 
z
" transform="scale(0.015625)"/>
       <path id="DejaVuSans-67" d="M 2906 1791 
Q 2906 2416 2648 2759 
Q 2391 3103 1925 3103 
Q 1463 3103 1205 2759 
Q 947 2416 947 1791 
Q 947 1169 1205 825 
Q 1463 481 1925 481 
Q 2391 481 2648 825 
Q 2906 1169 2906 1791 
z
M 3481 434 
Q 3481 -459 3084 -895 
Q 2688 -1331 1869 -1331 
Q 1566 -1331 1297 -1286 
Q 1028 -1241 775 -1147 
L 775 -588 
Q 1028 -725 1275 -790 
Q 1522 -856 1778 -856 
Q 2344 -856 2625 -561 
Q 2906 -266 2906 331 
L 2906 616 
Q 2728 306 2450 153 
Q 2172 0 1784 0 
Q 1141 0 747 490 
Q 353 981 353 1791 
Q 353 2603 747 3093 
Q 1141 3584 1784 3584 
Q 2172 3584 2450 3431 
Q 2728 3278 2906 2969 
L 2906 3500 
L 3481 3500 
L 3481 434 
z
" transform="scale(0.015625)"/>
       <path id="DejaVuSans-6f" d="M 1959 3097 
Q 1497 3097 1228 2736 
Q 959 2375 959 1747 
Q 959 1119 1226 758 
Q 1494 397 1959 397 
Q 2419 397 2687 759 
Q 2956 1122 2956 1747 
Q 2956 2369 2687 2733 
Q 2419 3097 1959 3097 
z
M 1959 3584 
Q 2709 3584 3137 3096 
Q 3566 2609 3566 1747 
Q 3566 888 3137 398 
Q 2709 -91 1959 -91 
Q 1206 -91 779 398 
Q 353 888 353 1747 
Q 353 2609 779 3096 
Q 1206 3584 1959 3584 
z
" transform="scale(0.015625)"/>
      </defs>
      <use xlink:href="#DejaVuSans-41"/>
      <use xlink:href="#DejaVuSans-76" transform="translate(62.533203 0)"/>
      <use xlink:href="#DejaVuSans-61" transform="translate(121.712891 0)"/>
      <use xlink:href="#DejaVuSans-69" transform="translate(182.992188 0)"/>
      <use xlink:href="#DejaVuSans-6c" transform="translate(210.775391 0)"/>
      <use xlink:href="#DejaVuSans-61" transform="translate(238.558594 0)"/>
      <use xlink:href="#DejaVuSans-62" transform="translate(299.837891 0)"/>
      <use xlink:href="#DejaVuSans-6c" transform="translate(363.314453 0)"/>
      <use xlink:href="#DejaVuSans-65" transform="translate(391.097656 0)"/>
      <use xlink:href="#DejaVuSans-20" transform="translate(452.621094 0)"/>
      <use xlink:href="#DejaVuSans-73" transform="translate(484.408203 0)"/>
      <use xlink:href="#DejaVuSans-74" transform="translate(536.507812 0)"/>
      <use xlink:href="#DejaVuSans-72" transform="translate(575.716797 0)"/>
      <use xlink:href="#DejaVuSans-75" transform="translate(616.830078 0)"/>
      <use xlink:href="#DejaVuSans-63" transform="translate(680.208984 0)"/>
      <use xlink:href="#DejaVuSans-74" transform="translate(735.189453 0)"/>
      <use xlink:href="#DejaVuSans-75" transform="translate(774.398438 0)"/>
      <use xlink:href="#DejaVuSans-72" transform="translate(837.777344 0)"/>
      <use xlink:href="#DejaVuSans-61" transform="translate(878.890625 0)"/>
      <use xlink:href="#DejaVuSans-6c" transform="translate(940.169922 0)"/>
      <use xlink:href="#DejaVuSans-20" transform="translate(967.953125 0)"/>
      <use xlink:href="#DejaVuSans-62" transform="translate(999.740234 0)"/>
      <use xlink:href="#DejaVuSans-75" transform="translate(1063.216797 0)"/>
      <use xlink:href="#DejaVuSans-64" transform="translate(1126.595703 0)"/>
      <use xlink:href="#DejaVuSans-67" transform="translate(1190.072266 0)"/>
      <use xlink:href="#DejaVuSans-65" transform="translate(1253.548828 0)"/>
      <use xlink:href="#DejaVuSans-74" transform="translate(1315.072266 0)"/>
      <use xlink:href="#DejaVuSans-20" transform="translate(1354.28125 0)"/>
      <use xlink:href="#DejaVuSans-72" transform="translate(1386.068359 0)"/>
      <use xlink:href="#DejaVuSans-61" transform="translate(1427.181641 0)"/>
      <use xlink:href="#DejaVuSans-74" transform="translate(1488.460938 0)"/>
      <use xlink:href="#DejaVuSans-69" transform="translate(1527.669922 0)"/>
      <use xlink:href="#DejaVuSans-6f" transform="translate(1555.453125 0)"/>
     </g>
    </g>
   </g>
   <g id="matplotlib.axis_2">
    <g id="ytick_1">
     <g id="line2d_13">
      <path d="M 39.632812 275.822437 
L 430.232813 275.822437 
" clip-path="url(#pca0730b9fa)" style="fill: none; stroke: #dbdbdb; stroke-width: 0.6; stroke-linecap: square"/>
     </g>
     <g id="line2d_14">
      <defs>
       <path id="m341bbb9d91" d="M 0 0 
L -3.5 0 
" style="stroke: #000000; stroke-width: 0.8"/>
      </defs>
      <g>
       <use xlink:href="#m341bbb9d91" x="39.632812" y="275.822437" style="stroke: #000000; stroke-width: 0.8"/>
      </g>
     </g>
     <g id="text_8">
      <!-- 0.0 -->
      <g transform="translate(19.910312 278.861812) scale(0.08 -0.08)">
       <use xlink:href="#DejaVuSans-30"/>
       <use xlink:href="#DejaVuSans-2e" transform="translate(63.623047 0)"/>
       <use xlink:href="#DejaVuSans-30" transform="translate(95.410156 0)"/>
      </g>
     </g>
    </g>
    <g id="ytick_2">
     <g id="line2d_15">
      <path d="M 39.632812 228.595771 
L 430.232813 228.595771 
" clip-path="url(#pca0730b9fa)" style="fill: none; stroke: #dbdbdb; stroke-width: 0.6; stroke-linecap: square"/>
     </g>
     <g id="line2d_16">
      <g>
       <use xlink:href="#m341bbb9d91" x="39.632812" y="228.595771" style="stroke: #000000; stroke-width: 0.8"/>
      </g>
     </g>
     <g id="text_9">
      <!-- 0.2 -->
      <g transform="translate(19.910312 231.635146) scale(0.08 -0.08)">
       <use xlink:href="#DejaVuSans-30"/>
       <use xlink:href="#DejaVuSans-2e" transform="translate(63.623047 0)"/>
       <use xlink:href="#DejaVuSans-32" transform="translate(95.410156 0)"/>
      </g>
     </g>
    </g>
    <g id="ytick_3">
     <g id="line2d_17">
      <path d="M 39.632812 181.369104 
L 430.232813 181.369104 
" clip-path="url(#pca0730b9fa)" style="fill: none; stroke: #dbdbdb; stroke-width: 0.6; stroke-linecap: square"/>
     </g>
     <g id="line2d_18">
      <g>
       <use xlink:href="#m341bbb9d91" x="39.632812" y="181.369104" style="stroke: #000000; stroke-width: 0.8"/>
      </g>
     </g>
     <g id="text_10">
      <!-- 0.4 -->
      <g transform="translate(19.910312 184.408479) scale(0.08 -0.08)">
       <use xlink:href="#DejaVuSans-30"/>
       <use xlink:href="#DejaVuSans-2e" transform="translate(63.623047 0)"/>
       <use xlink:href="#DejaVuSans-34" transform="translate(95.410156 0)"/>
      </g>
     </g>
    </g>
    <g id="ytick_4">
     <g id="line2d_19">
      <path d="M 39.632812 134.142437 
L 430.232813 134.142437 
" clip-path="url(#pca0730b9fa)" style="fill: none; stroke: #dbdbdb; stroke-width: 0.6; stroke-linecap: square"/>
     </g>
     <g id="line2d_20">
      <g>
       <use xlink:href="#m341bbb9d91" x="39.632812" y="134.142437" style="stroke: #000000; stroke-width: 0.8"/>
      </g>
     </g>
     <g id="text_11">
      <!-- 0.6 -->
      <g transform="translate(19.910312 137.181812) scale(0.08 -0.08)">
       <use xlink:href="#DejaVuSans-30"/>
       <use xlink:href="#DejaVuSans-2e" transform="translate(63.623047 0)"/>
       <use xlink:href="#DejaVuSans-36" transform="translate(95.410156 0)"/>
      </g>
     </g>
    </g>
    <g id="ytick_5">
     <g id="line2d_21">
      <path d="M 39.632812 86.915771 
L 430.232813 86.915771 
" clip-path="url(#pca0730b9fa)" style="fill: none; stroke: #dbdbdb; stroke-width: 0.6; stroke-linecap: square"/>
     </g>
     <g id="line2d_22">
      <g>
       <use xlink:href="#m341bbb9d91" x="39.632812" y="86.915771" style="stroke: #000000; stroke-width: 0.8"/>
      </g>
     </g>
     <g id="text_12">
      <!-- 0.8 -->
      <g transform="translate(19.910312 89.955146) scale(0.08 -0.08)">
       <use xlink:href="#DejaVuSans-30"/>
       <use xlink:href="#DejaVuSans-2e" transform="translate(63.623047 0)"/>
       <use xlink:href="#DejaVuSans-38" transform="translate(95.410156 0)"/>
      </g>
     </g>
    </g>
    <g id="ytick_6">
     <g id="line2d_23">
      <path d="M 39.632812 39.689104 
L 430.232813 39.689104 
" clip-path="url(#pca0730b9fa)" style="fill: none; stroke: #dbdbdb; stroke-width: 0.6; stroke-linecap: square"/>
     </g>
     <g id="line2d_24">
      <g>
       <use xlink:href="#m341bbb9d91" x="39.632812" y="39.689104" style="stroke: #000000; stroke-width: 0.8"/>
      </g>
     </g>
     <g id="text_13">
      <!-- 1.0 -->
      <g transform="translate(19.910312 42.728479) scale(0.08 -0.08)">
       <use xlink:href="#DejaVuSans-31"/>
       <use xlink:href="#DejaVuSans-2e" transform="translate(63.623047 0)"/>
       <use xlink:href="#DejaVuSans-30" transform="translate(95.410156 0)"/>
      </g>
     </g>
    </g>
    <g id="text_14">
     <!-- Composition accuracy -->
     <g transform="translate(14.038594 198.147234) rotate(-90) scale(0.09 -0.09)">
      <defs>
       <path id="DejaVuSans-43" d="M 4122 4306 
L 4122 3641 
Q 3803 3938 3442 4084 
Q 3081 4231 2675 4231 
Q 1875 4231 1450 3742 
Q 1025 3253 1025 2328 
Q 1025 1406 1450 917 
Q 1875 428 2675 428 
Q 3081 428 3442 575 
Q 3803 722 4122 1019 
L 4122 359 
Q 3791 134 3420 21 
Q 3050 -91 2638 -91 
Q 1578 -91 968 557 
Q 359 1206 359 2328 
Q 359 3453 968 4101 
Q 1578 4750 2638 4750 
Q 3056 4750 3426 4639 
Q 3797 4528 4122 4306 
z
" transform="scale(0.015625)"/>
       <path id="DejaVuSans-6d" d="M 3328 2828 
Q 3544 3216 3844 3400 
Q 4144 3584 4550 3584 
Q 5097 3584 5394 3201 
Q 5691 2819 5691 2113 
L 5691 0 
L 5113 0 
L 5113 2094 
Q 5113 2597 4934 2840 
Q 4756 3084 4391 3084 
Q 3944 3084 3684 2787 
Q 3425 2491 3425 1978 
L 3425 0 
L 2847 0 
L 2847 2094 
Q 2847 2600 2669 2842 
Q 2491 3084 2119 3084 
Q 1678 3084 1418 2786 
Q 1159 2488 1159 1978 
L 1159 0 
L 581 0 
L 581 3500 
L 1159 3500 
L 1159 2956 
Q 1356 3278 1631 3431 
Q 1906 3584 2284 3584 
Q 2666 3584 2933 3390 
Q 3200 3197 3328 2828 
z
" transform="scale(0.015625)"/>
       <path id="DejaVuSans-70" d="M 1159 525 
L 1159 -1331 
L 581 -1331 
L 581 3500 
L 1159 3500 
L 1159 2969 
Q 1341 3281 1617 3432 
Q 1894 3584 2278 3584 
Q 2916 3584 3314 3078 
Q 3713 2572 3713 1747 
Q 3713 922 3314 415 
Q 2916 -91 2278 -91 
Q 1894 -91 1617 61 
Q 1341 213 1159 525 
z
M 3116 1747 
Q 3116 2381 2855 2742 
Q 2594 3103 2138 3103 
Q 1681 3103 1420 2742 
Q 1159 2381 1159 1747 
Q 1159 1113 1420 752 
Q 1681 391 2138 391 
Q 2594 391 2855 752 
Q 3116 1113 3116 1747 
z
" transform="scale(0.015625)"/>
       <path id="DejaVuSans-6e" d="M 3513 2113 
L 3513 0 
L 2938 0 
L 2938 2094 
Q 2938 2591 2744 2837 
Q 2550 3084 2163 3084 
Q 1697 3084 1428 2787 
Q 1159 2491 1159 1978 
L 1159 0 
L 581 0 
L 581 3500 
L 1159 3500 
L 1159 2956 
Q 1366 3272 1645 3428 
Q 1925 3584 2291 3584 
Q 2894 3584 3203 3211 
Q 3513 2838 3513 2113 
z
" transform="scale(0.015625)"/>
       <path id="DejaVuSans-79" d="M 2059 -325 
Q 1816 -950 1584 -1140 
Q 1353 -1331 966 -1331 
L 506 -1331 
L 506 -850 
L 844 -850 
Q 1081 -850 1212 -737 
Q 1344 -625 1503 -206 
L 1606 56 
L 191 3500 
L 800 3500 
L 1894 763 
L 2988 3500 
L 3597 3500 
L 2059 -325 
z
" transform="scale(0.015625)"/>
      </defs>
      <use xlink:href="#DejaVuSans-43"/>
      <use xlink:href="#DejaVuSans-6f" transform="translate(69.824219 0)"/>
      <use xlink:href="#DejaVuSans-6d" transform="translate(131.005859 0)"/>
      <use xlink:href="#DejaVuSans-70" transform="translate(228.417969 0)"/>
      <use xlink:href="#DejaVuSans-6f" transform="translate(291.894531 0)"/>
      <use xlink:href="#DejaVuSans-73" transform="translate(353.076172 0)"/>
      <use xlink:href="#DejaVuSans-69" transform="translate(405.175781 0)"/>
      <use xlink:href="#DejaVuSans-74" transform="translate(432.958984 0)"/>
      <use xlink:href="#DejaVuSans-69" transform="translate(472.167969 0)"/>
      <use xlink:href="#DejaVuSans-6f" transform="translate(499.951172 0)"/>
      <use xlink:href="#DejaVuSans-6e" transform="translate(561.132812 0)"/>
      <use xlink:href="#DejaVuSans-20" transform="translate(624.511719 0)"/>
      <use xlink:href="#DejaVuSans-61" transform="translate(656.298828 0)"/>
      <use xlink:href="#DejaVuSans-63" transform="translate(717.578125 0)"/>
      <use xlink:href="#DejaVuSans-63" transform="translate(772.558594 0)"/>
      <use xlink:href="#DejaVuSans-75" transform="translate(827.539062 0)"/>
      <use xlink:href="#DejaVuSans-72" transform="translate(890.917969 0)"/>
      <use xlink:href="#DejaVuSans-61" transform="translate(932.03125 0)"/>
      <use xlink:href="#DejaVuSans-63" transform="translate(993.310547 0)"/>
      <use xlink:href="#DejaVuSans-79" transform="translate(1048.291016 0)"/>
     </g>
    </g>
   </g>
   <g id="LineCollection_1">
    <path d="M 57.387358 211.432493 
L 57.387358 210.093077 
" clip-path="url(#pca0730b9fa)" style="fill: none; stroke: #333333; stroke-width: 1.6"/>
    <path d="M 146.160085 154.157914 
L 146.160085 153.175051 
" clip-path="url(#pca0730b9fa)" style="fill: none; stroke: #333333; stroke-width: 1.6"/>
    <path d="M 234.932813 97.397574 
L 234.932813 96.296224 
" clip-path="url(#pca0730b9fa)" style="fill: none; stroke: #333333; stroke-width: 1.6"/>
    <path d="M 323.70554 39.689104 
L 323.70554 39.689104 
" clip-path="url(#pca0730b9fa)" style="fill: none; stroke: #333333; stroke-width: 1.6"/>
    <path d="M 412.478267 39.689104 
L 412.478267 39.689104 
" clip-path="url(#pca0730b9fa)" style="fill: none; stroke: #333333; stroke-width: 1.6"/>
   </g>
   <g id="line2d_25">
    <defs>
     <path id="m428dec3171" d="M 3 0 
L -3 -0 
" style="stroke: #333333"/>
    </defs>
    <g clip-path="url(#pca0730b9fa)">
     <use xlink:href="#m428dec3171" x="57.387358" y="211.432493" style="fill: #333333; stroke: #333333"/>
     <use xlink:href="#m428dec3171" x="146.160085" y="154.157914" style="fill: #333333; stroke: #333333"/>
     <use xlink:href="#m428dec3171" x="234.932813" y="97.397574" style="fill: #333333; stroke: #333333"/>
     <use xlink:href="#m428dec3171" x="323.70554" y="39.689104" style="fill: #333333; stroke: #333333"/>
     <use xlink:href="#m428dec3171" x="412.478267" y="39.689104" style="fill: #333333; stroke: #333333"/>
    </g>
   </g>
   <g id="line2d_26">
    <g clip-path="url(#pca0730b9fa)">
     <use xlink:href="#m428dec3171" x="57.387358" y="210.093077" style="fill: #333333; stroke: #333333"/>
     <use xlink:href="#m428dec3171" x="146.160085" y="153.175051" style="fill: #333333; stroke: #333333"/>
     <use xlink:href="#m428dec3171" x="234.932813" y="96.296224" style="fill: #333333; stroke: #333333"/>
     <use xlink:href="#m428dec3171" x="323.70554" y="39.689104" style="fill: #333333; stroke: #333333"/>
     <use xlink:href="#m428dec3171" x="412.478267" y="39.689104" style="fill: #333333; stroke: #333333"/>
    </g>
   </g>
   <g id="LineCollection_2">
    <path d="M 57.387358 267.32093 
L 57.387358 264.646167 
" clip-path="url(#pca0730b9fa)" style="fill: none; stroke: #949494; stroke-width: 1.6"/>
    <path d="M 146.160085 263.230748 
L 146.160085 260.250308 
" clip-path="url(#pca0730b9fa)" style="fill: none; stroke: #949494; stroke-width: 1.6"/>
    <path d="M 234.932813 247.9535 
L 234.932813 238.570229 
" clip-path="url(#pca0730b9fa)" style="fill: none; stroke: #949494; stroke-width: 1.6"/>
    <path d="M 323.70554 39.689104 
L 323.70554 39.689104 
" clip-path="url(#pca0730b9fa)" style="fill: none; stroke: #949494; stroke-width: 1.6"/>
   </g>
   <g id="line2d_27">
    <defs>
     <path id="mf76ba5a0c8" d="M 3 0 
L -3 -0 
" style="stroke: #949494"/>
    </defs>
    <g clip-path="url(#pca0730b9fa)">
     <use xlink:href="#mf76ba5a0c8" x="57.387358" y="267.32093" style="fill: #949494; stroke: #949494"/>
     <use xlink:href="#mf76ba5a0c8" x="146.160085" y="263.230748" style="fill: #949494; stroke: #949494"/>
     <use xlink:href="#mf76ba5a0c8" x="234.932813" y="247.9535" style="fill: #949494; stroke: #949494"/>
     <use xlink:href="#mf76ba5a0c8" x="323.70554" y="39.689104" style="fill: #949494; stroke: #949494"/>
    </g>
   </g>
   <g id="line2d_28">
    <g clip-path="url(#pca0730b9fa)">
     <use xlink:href="#mf76ba5a0c8" x="57.387358" y="264.646167" style="fill: #949494; stroke: #949494"/>
     <use xlink:href="#mf76ba5a0c8" x="146.160085" y="260.250308" style="fill: #949494; stroke: #949494"/>
     <use xlink:href="#mf76ba5a0c8" x="234.932813" y="238.570229" style="fill: #949494; stroke: #949494"/>
     <use xlink:href="#mf76ba5a0c8" x="323.70554" y="39.689104" style="fill: #949494; stroke: #949494"/>
    </g>
   </g>
   <g id="line2d_29">
    <path d="M 57.387358 210.762785 
L 146.160085 153.666483 
L 234.932813 96.846899 
L 323.70554 39.689104 
L 412.478267 39.689104 
" clip-path="url(#pca0730b9fa)" style="fill: none; stroke: #333333; stroke-width: 1.6; stroke-linecap: square"/>
    <defs>
     <path id="mb3b3c0fecd" d="M 0 3 
C 0.795609 3 1.55874 2.683901 2.12132 2.12132 
C 2.683901 1.55874 3 0.795609 3 0 
C 3 -0.795609 2.683901 -1.55874 2.12132 -2.12132 
C 1.55874 -2.683901 0.795609 -3 0 -3 
C -0.795609 -3 -1.55874 -2.683901 -2.12132 -2.12132 
C -2.683901 -1.55874 -3 -0.795609 -3 0 
C -3 0.795609 -2.683901 1.55874 -2.12132 2.12132 
C -1.55874 2.683901 -0.795609 3 0 3 
z
" style="stroke: #333333"/>
    </defs>
    <g clip-path="url(#pca0730b9fa)">
     <use xlink:href="#mb3b3c0fecd" x="57.387358" y="210.762785" style="fill: #333333; stroke: #333333"/>
     <use xlink:href="#mb3b3c0fecd" x="146.160085" y="153.666483" style="fill: #333333; stroke: #333333"/>
     <use xlink:href="#mb3b3c0fecd" x="234.932813" y="96.846899" style="fill: #333333; stroke: #333333"/>
     <use xlink:href="#mb3b3c0fecd" x="323.70554" y="39.689104" style="fill: #333333; stroke: #333333"/>
     <use xlink:href="#mb3b3c0fecd" x="412.478267" y="39.689104" style="fill: #333333; stroke: #333333"/>
    </g>
   </g>
   <g id="line2d_30">
    <path d="M 57.387358 265.983549 
L 146.160085 261.740528 
L 234.932813 243.261865 
L 323.70554 39.689104 
" clip-path="url(#pca0730b9fa)" style="fill: none; stroke: #949494; stroke-width: 1.6; stroke-linecap: square"/>
    <defs>
     <path id="md817a3c2dc" d="M -3 3 
L 3 3 
L 3 -3 
L -3 -3 
z
" style="stroke: #949494; stroke-linejoin: miter"/>
    </defs>
    <g clip-path="url(#pca0730b9fa)">
     <use xlink:href="#md817a3c2dc" x="57.387358" y="265.983549" style="fill: #949494; stroke: #949494; stroke-linejoin: miter"/>
     <use xlink:href="#md817a3c2dc" x="146.160085" y="261.740528" style="fill: #949494; stroke: #949494; stroke-linejoin: miter"/>
     <use xlink:href="#md817a3c2dc" x="234.932813" y="243.261865" style="fill: #949494; stroke: #949494; stroke-linejoin: miter"/>
     <use xlink:href="#md817a3c2dc" x="323.70554" y="39.689104" style="fill: #949494; stroke: #949494; stroke-linejoin: miter"/>
    </g>
   </g>
   <g id="patch_3">
    <path d="M 39.632812 275.822437 
L 39.632812 20.798437 
" style="fill: none; stroke: #000000; stroke-width: 0.8; stroke-linejoin: miter; stroke-linecap: square"/>
   </g>
   <g id="patch_4">
    <path d="M 39.632812 275.822437 
L 430.232813 275.822437 
" style="fill: none; stroke: #000000; stroke-width: 0.8; stroke-linejoin: miter; stroke-linecap: square"/>
   </g>
   <g id="text_15">
    <!-- Finite structural budget produces degradation -->
    <g transform="translate(119.865625 14.798437) scale(0.1 -0.1)">
     <defs>
      <path id="DejaVuSans-46" d="M 628 4666 
L 3309 4666 
L 3309 4134 
L 1259 4134 
L 1259 2759 
L 3109 2759 
L 3109 2228 
L 1259 2228 
L 1259 0 
L 628 0 
L 628 4666 
z
" transform="scale(0.015625)"/>
     </defs>
     <use xlink:href="#DejaVuSans-46"/>
     <use xlink:href="#DejaVuSans-69" transform="translate(50.269531 0)"/>
     <use xlink:href="#DejaVuSans-6e" transform="translate(78.052734 0)"/>
     <use xlink:href="#DejaVuSans-69" transform="translate(141.431641 0)"/>
     <use xlink:href="#DejaVuSans-74" transform="translate(169.214844 0)"/>
     <use xlink:href="#DejaVuSans-65" transform="translate(208.423828 0)"/>
     <use xlink:href="#DejaVuSans-20" transform="translate(269.947266 0)"/>
     <use xlink:href="#DejaVuSans-73" transform="translate(301.734375 0)"/>
     <use xlink:href="#DejaVuSans-74" transform="translate(353.833984 0)"/>
     <use xlink:href="#DejaVuSans-72" transform="translate(393.042969 0)"/>
     <use xlink:href="#DejaVuSans-75" transform="translate(434.15625 0)"/>
     <use xlink:href="#DejaVuSans-63" transform="translate(497.535156 0)"/>
     <use xlink:href="#DejaVuSans-74" transform="translate(552.515625 0)"/>
     <use xlink:href="#DejaVuSans-75" transform="translate(591.724609 0)"/>
     <use xlink:href="#DejaVuSans-72" transform="translate(655.103516 0)"/>
     <use xlink:href="#DejaVuSans-61" transform="translate(696.216797 0)"/>
     <use xlink:href="#DejaVuSans-6c" transform="translate(757.496094 0)"/>
     <use xlink:href="#DejaVuSans-20" transform="translate(785.279297 0)"/>
     <use xlink:href="#DejaVuSans-62" transform="translate(817.066406 0)"/>
     <use xlink:href="#DejaVuSans-75" transform="translate(880.542969 0)"/>
     <use xlink:href="#DejaVuSans-64" transform="translate(943.921875 0)"/>
     <use xlink:href="#DejaVuSans-67" transform="translate(1007.398438 0)"/>
     <use xlink:href="#DejaVuSans-65" transform="translate(1070.875 0)"/>
     <use xlink:href="#DejaVuSans-74" transform="translate(1132.398438 0)"/>
     <use xlink:href="#DejaVuSans-20" transform="translate(1171.607422 0)"/>
     <use xlink:href="#DejaVuSans-70" transform="translate(1203.394531 0)"/>
     <use xlink:href="#DejaVuSans-72" transform="translate(1266.871094 0)"/>
     <use xlink:href="#DejaVuSans-6f" transform="translate(1305.734375 0)"/>
     <use xlink:href="#DejaVuSans-64" transform="translate(1366.916016 0)"/>
     <use xlink:href="#DejaVuSans-75" transform="translate(1430.392578 0)"/>
     <use xlink:href="#DejaVuSans-63" transform="translate(1493.771484 0)"/>
     <use xlink:href="#DejaVuSans-65" transform="translate(1548.751953 0)"/>
     <use xlink:href="#DejaVuSans-73" transform="translate(1610.275391 0)"/>
     <use xlink:href="#DejaVuSans-20" transform="translate(1662.375 0)"/>
     <use xlink:href="#DejaVuSans-64" transform="translate(1694.162109 0)"/>
     <use xlink:href="#DejaVuSans-65" transform="translate(1757.638672 0)"/>
     <use xlink:href="#DejaVuSans-67" transform="translate(1819.162109 0)"/>
     <use xlink:href="#DejaVuSans-72" transform="translate(1882.638672 0)"/>
     <use xlink:href="#DejaVuSans-61" transform="translate(1923.751953 0)"/>
     <use xlink:href="#DejaVuSans-64" transform="translate(1985.03125 0)"/>
     <use xlink:href="#DejaVuSans-61" transform="translate(2048.507812 0)"/>
     <use xlink:href="#DejaVuSans-74" transform="translate(2109.787109 0)"/>
     <use xlink:href="#DejaVuSans-69" transform="translate(2148.996094 0)"/>
     <use xlink:href="#DejaVuSans-6f" transform="translate(2176.779297 0)"/>
     <use xlink:href="#DejaVuSans-6e" transform="translate(2237.960938 0)"/>
    </g>
   </g>
   <g id="legend_1">
    <g id="LineCollection_3">
     <path d="M 54.832813 35.277187 
L 54.832813 27.277187 
" style="fill: none; stroke: #333333; stroke-width: 1.6"/>
    </g>
    <g id="line2d_31">
     <g>
      <use xlink:href="#m428dec3171" x="54.832813" y="35.277187" style="fill: #333333; stroke: #333333"/>
     </g>
    </g>
    <g id="line2d_32">
     <g>
      <use xlink:href="#m428dec3171" x="54.832813" y="27.277187" style="fill: #333333; stroke: #333333"/>
     </g>
    </g>
    <g id="line2d_33">
     <path d="M 46.832813 31.277187 
L 62.832813 31.277187 
" style="fill: none; stroke: #333333; stroke-width: 1.6; stroke-linecap: square"/>
    </g>
    <g id="line2d_34">
     <g>
      <use xlink:href="#mb3b3c0fecd" x="54.832813" y="31.277187" style="fill: #333333; stroke: #333333"/>
     </g>
    </g>
    <g id="text_16">
     <!-- Global budget -->
     <g transform="translate(69.232812 34.077187) scale(0.08 -0.08)">
      <defs>
       <path id="DejaVuSans-47" d="M 3809 666 
L 3809 1919 
L 2778 1919 
L 2778 2438 
L 4434 2438 
L 4434 434 
Q 4069 175 3628 42 
Q 3188 -91 2688 -91 
Q 1594 -91 976 548 
Q 359 1188 359 2328 
Q 359 3472 976 4111 
Q 1594 4750 2688 4750 
Q 3144 4750 3555 4637 
Q 3966 4525 4313 4306 
L 4313 3634 
Q 3963 3931 3569 4081 
Q 3175 4231 2741 4231 
Q 1884 4231 1454 3753 
Q 1025 3275 1025 2328 
Q 1025 1384 1454 906 
Q 1884 428 2741 428 
Q 3075 428 3337 486 
Q 3600 544 3809 666 
z
" transform="scale(0.015625)"/>
      </defs>
      <use xlink:href="#DejaVuSans-47"/>
      <use xlink:href="#DejaVuSans-6c" transform="translate(77.490234 0)"/>
      <use xlink:href="#DejaVuSans-6f" transform="translate(105.273438 0)"/>
      <use xlink:href="#DejaVuSans-62" transform="translate(166.455078 0)"/>
      <use xlink:href="#DejaVuSans-61" transform="translate(229.931641 0)"/>
      <use xlink:href="#DejaVuSans-6c" transform="translate(291.210938 0)"/>
      <use xlink:href="#DejaVuSans-20" transform="translate(318.994141 0)"/>
      <use xlink:href="#DejaVuSans-62" transform="translate(350.78125 0)"/>
      <use xlink:href="#DejaVuSans-75" transform="translate(414.257812 0)"/>
      <use xlink:href="#DejaVuSans-64" transform="translate(477.636719 0)"/>
      <use xlink:href="#DejaVuSans-67" transform="translate(541.113281 0)"/>
      <use xlink:href="#DejaVuSans-65" transform="translate(604.589844 0)"/>
      <use xlink:href="#DejaVuSans-74" transform="translate(666.113281 0)"/>
     </g>
    </g>
    <g id="LineCollection_4">
     <path d="M 54.832813 47.019687 
L 54.832813 39.019687 
" style="fill: none; stroke: #949494; stroke-width: 1.6"/>
    </g>
    <g id="line2d_35">
     <g>
      <use xlink:href="#mf76ba5a0c8" x="54.832813" y="47.019687" style="fill: #949494; stroke: #949494"/>
     </g>
    </g>
    <g id="line2d_36">
     <g>
      <use xlink:href="#mf76ba5a0c8" x="54.832813" y="39.019687" style="fill: #949494; stroke: #949494"/>
     </g>
    </g>
    <g id="line2d_37">
     <path d="M 46.832813 43.019687 
L 62.832813 43.019687 
" style="fill: none; stroke: #949494; stroke-width: 1.6; stroke-linecap: square"/>
    </g>
    <g id="line2d_38">
     <g>
      <use xlink:href="#md817a3c2dc" x="54.832813" y="43.019687" style="fill: #949494; stroke: #949494; stroke-linejoin: miter"/>
     </g>
    </g>
    <g id="text_17">
     <!-- Local per-world budget -->
     <g transform="translate(69.232812 45.819687) scale(0.08 -0.08)">
      <defs>
       <path id="DejaVuSans-4c" d="M 628 4666 
L 1259 4666 
L 1259 531 
L 3531 531 
L 3531 0 
L 628 0 
L 628 4666 
z
" transform="scale(0.015625)"/>
       <path id="DejaVuSans-2d" d="M 313 2009 
L 1997 2009 
L 1997 1497 
L 313 1497 
L 313 2009 
z
" transform="scale(0.015625)"/>
       <path id="DejaVuSans-77" d="M 269 3500 
L 844 3500 
L 1563 769 
L 2278 3500 
L 2956 3500 
L 3675 769 
L 4391 3500 
L 4966 3500 
L 4050 0 
L 3372 0 
L 2619 2869 
L 1863 0 
L 1184 0 
L 269 3500 
z
" transform="scale(0.015625)"/>
      </defs>
      <use xlink:href="#DejaVuSans-4c"/>
      <use xlink:href="#DejaVuSans-6f" transform="translate(53.962891 0)"/>
      <use xlink:href="#DejaVuSans-63" transform="translate(115.144531 0)"/>
      <use xlink:href="#DejaVuSans-61" transform="translate(170.125 0)"/>
      <use xlink:href="#DejaVuSans-6c" transform="translate(231.404297 0)"/>
      <use xlink:href="#DejaVuSans-20" transform="translate(259.1875 0)"/>
      <use xlink:href="#DejaVuSans-70" transform="translate(290.974609 0)"/>
      <use xlink:href="#DejaVuSans-65" transform="translate(354.451172 0)"/>
      <use xlink:href="#DejaVuSans-72" transform="translate(415.974609 0)"/>
      <use xlink:href="#DejaVuSans-2d" transform="translate(450.712891 0)"/>
      <use xlink:href="#DejaVuSans-77" transform="translate(486.796875 0)"/>
      <use xlink:href="#DejaVuSans-6f" transform="translate(568.583984 0)"/>
      <use xlink:href="#DejaVuSans-72" transform="translate(629.765625 0)"/>
      <use xlink:href="#DejaVuSans-6c" transform="translate(670.878906 0)"/>
      <use xlink:href="#DejaVuSans-64" transform="translate(698.662109 0)"/>
      <use xlink:href="#DejaVuSans-20" transform="translate(762.138672 0)"/>
      <use xlink:href="#DejaVuSans-62" transform="translate(793.925781 0)"/>
      <use xlink:href="#DejaVuSans-75" transform="translate(857.402344 0)"/>
      <use xlink:href="#DejaVuSans-64" transform="translate(920.78125 0)"/>
      <use xlink:href="#DejaVuSans-67" transform="translate(984.257812 0)"/>
      <use xlink:href="#DejaVuSans-65" transform="translate(1047.734375 0)"/>
      <use xlink:href="#DejaVuSans-74" transform="translate(1109.257812 0)"/>
     </g>
    </g>
   </g>
  </g>
 </g>
 <defs>
  <clipPath id="pca0730b9fa">
   <rect x="39.632812" y="20.798437" width="390.6" height="255.024"/>
  </clipPath>
 </defs>
</svg>
