<?xml version="1.0" encoding="utf-8" standalone="no"?>
<!DOCTYPE svg PUBLIC "-//W3C//DTD SVG 1.1//EN"
  "http://www.w3.org/Graphics/SVG/1.1/DTD/svg11.dtd">
<svg xmlns:xlink="http://www.w3.org/1999/xlink" width="437.432812pt" height="306.723187pt" viewBox="0 0 437.432812 306.723187" xmlns="http://www.w3.org/2000/svg" version="1.1">
 <metadata>
  <rdf:RDF xmlns:dc="http://purl.org/dc/elements/1.1/" xmlns:cc="http://creativecommons.org/ns#" xmlns:rdf="http://www.w3.org/1999/02/22-rdf-syntax-ns#">
   <cc:Work>
    <dc:type rdf:resource="http://purl.org/dc/dcmitype/StillImage"/>
    <dc:date>2026-05-11T23:33:20.878339</dc:date>
    <dc:format>image/svg+xml</dc:format>
    <dc:creator>
     <cc:Agent>
      <dc:title>Matplotlib v3.10.9, https://matplotlib.org/</dc:title>
     </cc:Agent>
    </dc:creator>
   </cc:Work>
  </rdf:RDF>
 </metadata>
 <defs>
  <style type="text/css">*{stroke-linejoin: round; stroke-linecap: butt}</style>
 </defs>
 <g id="figure_1">
  <g id="patch_1">
   <path d="M 0 306.723187 
L 437.432812 306.723187 
L 437.432812 0 
L 0 0 
z
" style="fill: #ffffff"/>
  </g>
  <g id="axes_1">
   <g id="patch_2">
    <path d="M 39.632812 275.822437 
L 430.232813 275.822437 
L 430.232813 20.798437 
L 39.632812 20.798437 
z
" style="fill: #ffffff"/>
   </g>
   <g id="patch_3">
    <path d="M 57.387358 275.822437 
L 90.19467 275.822437 
L 90.19467 39.689104 
L 57.387358 39.689104 
z
" clip-path="url(#p38fad6bd8d)" style="fill: #333333"/>
   </g>
   <g id="patch_4">
    <path d="M 153.879453 275.822437 
L 186.686765 275.822437 
L 186.686765 269.063326 
L 153.879453 269.063326 
z
" clip-path="url(#p38fad6bd8d)" style="fill: #333333"/>
   </g>
   <g id="patch_5">
    <path d="M 250.371548 275.822437 
L 283.17886 275.822437 
L 283.17886 189.947385 
L 250.371548 189.947385 
z
" clip-path="url(#p38fad6bd8d)" style="fill: #333333"/>
   </g>
   <g id="patch_6">
    <path d="M 346.863643 275.822437 
L 379.670955 275.822437 
L 379.670955 39.689104 
L 346.863643 39.689104 
z
" clip-path="url(#p38fad6bd8d)" style="fill: #333333"/>
   </g>
   <g id="patch_7">
    <path d="M 90.19467 275.822437 
L 123.001982 275.822437 
L 123.001982 39.689104 
L 90.19467 39.689104 
z
" clip-path="url(#p38fad6bd8d)" style="fill: url(#hc79d24f2e2)"/>
   </g>
   <g id="patch_8">
    <path d="M 186.686765 275.822437 
L 219.494077 275.822437 
L 219.494077 268.340782 
L 186.686765 268.340782 
z
" clip-path="url(#p38fad6bd8d)" style="fill: url(#hc79d24f2e2)"/>
   </g>
   <g id="patch_9">
    <path d="M 283.17886 275.822437 
L 315.986172 275.822437 
L 315.986172 264.78785 
L 283.17886 264.78785 
z
" clip-path="url(#p38fad6bd8d)" style="fill: url(#hc79d24f2e2)"/>
   </g>
   <g id="patch_10">
    <path d="M 379.670955 275.822437 
L 412.478267 275.822437 
L 412.478267 266.345674 
L 379.670955 266.345674 
z
" clip-path="url(#p38fad6bd8d)" style="fill: url(#hc79d24f2e2)"/>
   </g>
   <g id="matplotlib.axis_1">
    <g id="xtick_1">
     <g id="line2d_1">
      <path d="M 90.19467 275.822437 
L 90.19467 20.798437 
" clip-path="url(#p38fad6bd8d)" style="fill: none; stroke: #dbdbdb; stroke-width: 0.6; stroke-linecap: square"/>
     </g>
     <g id="line2d_2">
      <defs>
       <path id="m586638cbe5" d="M 0 0 
L 0 3.5 
" style="stroke: #000000; stroke-width: 0.8"/>
      </defs>
      <g>
       <use xlink:href="#m586638cbe5" x="90.19467" y="275.822437" style="stroke: #000000; stroke-width: 0.8"/>
      </g>
     </g>
     <g id="text_1">
      <!-- Full model -->
      <g transform="translate(69.62967 288.901187) scale(0.08 -0.08)">
       <defs>
        <path id="DejaVuSans-46" d="M 628 4666 
L 3309 4666 
L 3309 4134 
L 1259 4134 
L 1259 2759 
L 3109 2759 
L 3109 2228 
L 1259 2228 
L 1259 0 
L 628 0 
L 628 4666 
z
" transform="scale(0.015625)"/>
        <path id="DejaVuSans-75" d="M 544 1381 
L 544 3500 
L 1119 3500 
L 1119 1403 
Q 1119 906 1312 657 
Q 1506 409 1894 409 
Q 2359 409 2629 706 
Q 2900 1003 2900 1516 
L 2900 3500 
L 3475 3500 
L 3475 0 
L 2900 0 
L 2900 538 
Q 2691 219 2414 64 
Q 2138 -91 1772 -91 
Q 1169 -91 856 284 
Q 544 659 544 1381 
z
M 1991 3584 
L 1991 3584 
z
" transform="scale(0.015625)"/>
        <path id="DejaVuSans-6c" d="M 603 4863 
L 1178 4863 
L 1178 0 
L 603 0 
L 603 4863 
z
" transform="scale(0.015625)"/>
        <path id="DejaVuSans-20" transform="scale(0.015625)"/>
        <path id="DejaVuSans-6d" d="M 3328 2828 
Q 3544 3216 3844 3400 
Q 4144 3584 4550 3584 
Q 5097 3584 5394 3201 
Q 5691 2819 5691 2113 
L 5691 0 
L 5113 0 
L 5113 2094 
Q 5113 2597 4934 2840 
Q 4756 3084 4391 3084 
Q 3944 3084 3684 2787 
Q 3425 2491 3425 1978 
L 3425 0 
L 2847 0 
L 2847 2094 
Q 2847 2600 2669 2842 
Q 2491 3084 2119 3084 
Q 1678 3084 1418 2786 
Q 1159 2488 1159 1978 
L 1159 0 
L 581 0 
L 581 3500 
L 1159 3500 
L 1159 2956 
Q 1356 3278 1631 3431 
Q 1906 3584 2284 3584 
Q 2666 3584 2933 3390 
Q 3200 3197 3328 2828 
z
" transform="scale(0.015625)"/>
        <path id="DejaVuSans-6f" d="M 1959 3097 
Q 1497 3097 1228 2736 
Q 959 2375 959 1747 
Q 959 1119 1226 758 
Q 1494 397 1959 397 
Q 2419 397 2687 759 
Q 2956 1122 2956 1747 
Q 2956 2369 2687 2733 
Q 2419 3097 1959 3097 
z
M 1959 3584 
Q 2709 3584 3137 3096 
Q 3566 2609 3566 1747 
Q 3566 888 3137 398 
Q 2709 -91 1959 -91 
Q 1206 -91 779 398 
Q 353 888 353 1747 
Q 353 2609 779 3096 
Q 1206 3584 1959 3584 
z
" transform="scale(0.015625)"/>
        <path id="DejaVuSans-64" d="M 2906 2969 
L 2906 4863 
L 3481 4863 
L 3481 0 
L 2906 0 
L 2906 525 
Q 2725 213 2448 61 
Q 2172 -91 1784 -91 
Q 1150 -91 751 415 
Q 353 922 353 1747 
Q 353 2572 751 3078 
Q 1150 3584 1784 3584 
Q 2172 3584 2448 3432 
Q 2725 3281 2906 2969 
z
M 947 1747 
Q 947 1113 1208 752 
Q 1469 391 1925 391 
Q 2381 391 2643 752 
Q 2906 1113 2906 1747 
Q 2906 2381 2643 2742 
Q 2381 3103 1925 3103 
Q 1469 3103 1208 2742 
Q 947 2381 947 1747 
z
" transform="scale(0.015625)"/>
        <path id="DejaVuSans-65" d="M 3597 1894 
L 3597 1613 
L 953 1613 
Q 991 1019 1311 708 
Q 1631 397 2203 397 
Q 2534 397 2845 478 
Q 3156 559 3463 722 
L 3463 178 
Q 3153 47 2828 -22 
Q 2503 -91 2169 -91 
Q 1331 -91 842 396 
Q 353 884 353 1716 
Q 353 2575 817 3079 
Q 1281 3584 2069 3584 
Q 2775 3584 3186 3129 
Q 3597 2675 3597 1894 
z
M 3022 2063 
Q 3016 2534 2758 2815 
Q 2500 3097 2075 3097 
Q 1594 3097 1305 2825 
Q 1016 2553 972 2059 
L 3022 2063 
z
" transform="scale(0.015625)"/>
       </defs>
       <use xlink:href="#DejaVuSans-46"/>
       <use xlink:href="#DejaVuSans-75" transform="translate(52.019531 0)"/>
       <use xlink:href="#DejaVuSans-6c" transform="translate(115.398438 0)"/>
       <use xlink:href="#DejaVuSans-6c" transform="translate(143.181641 0)"/>
       <use xlink:href="#DejaVuSans-20" transform="translate(170.964844 0)"/>
       <use xlink:href="#DejaVuSans-6d" transform="translate(202.751953 0)"/>
       <use xlink:href="#DejaVuSans-6f" transform="translate(300.164062 0)"/>
       <use xlink:href="#DejaVuSans-64" transform="translate(361.345703 0)"/>
       <use xlink:href="#DejaVuSans-65" transform="translate(424.822266 0)"/>
       <use xlink:href="#DejaVuSans-6c" transform="translate(486.345703 0)"/>
      </g>
     </g>
    </g>
    <g id="xtick_2">
     <g id="line2d_3">
      <path d="M 186.686765 275.822437 
L 186.686765 20.798437 
" clip-path="url(#p38fad6bd8d)" style="fill: none; stroke: #dbdbdb; stroke-width: 0.6; stroke-linecap: square"/>
     </g>
     <g id="line2d_4">
      <g>
       <use xlink:href="#m586638cbe5" x="186.686765" y="275.822437" style="stroke: #000000; stroke-width: 0.8"/>
      </g>
     </g>
     <g id="text_2">
      <!-- No structural -->
      <g transform="translate(160.63489 288.901187) scale(0.08 -0.08)">
       <defs>
        <path id="DejaVuSans-4e" d="M 628 4666 
L 1478 4666 
L 3547 763 
L 3547 4666 
L 4159 4666 
L 4159 0 
L 3309 0 
L 1241 3903 
L 1241 0 
L 628 0 
L 628 4666 
z
" transform="scale(0.015625)"/>
        <path id="DejaVuSans-73" d="M 2834 3397 
L 2834 2853 
Q 2591 2978 2328 3040 
Q 2066 3103 1784 3103 
Q 1356 3103 1142 2972 
Q 928 2841 928 2578 
Q 928 2378 1081 2264 
Q 1234 2150 1697 2047 
L 1894 2003 
Q 2506 1872 2764 1633 
Q 3022 1394 3022 966 
Q 3022 478 2636 193 
Q 2250 -91 1575 -91 
Q 1294 -91 989 -36 
Q 684 19 347 128 
L 347 722 
Q 666 556 975 473 
Q 1284 391 1588 391 
Q 1994 391 2212 530 
Q 2431 669 2431 922 
Q 2431 1156 2273 1281 
Q 2116 1406 1581 1522 
L 1381 1569 
Q 847 1681 609 1914 
Q 372 2147 372 2553 
Q 372 3047 722 3315 
Q 1072 3584 1716 3584 
Q 2034 3584 2315 3537 
Q 2597 3491 2834 3397 
z
" transform="scale(0.015625)"/>
        <path id="DejaVuSans-74" d="M 1172 4494 
L 1172 3500 
L 2356 3500 
L 2356 3053 
L 1172 3053 
L 1172 1153 
Q 1172 725 1289 603 
Q 1406 481 1766 481 
L 2356 481 
L 2356 0 
L 1766 0 
Q 1100 0 847 248 
Q 594 497 594 1153 
L 594 3053 
L 172 3053 
L 172 3500 
L 594 3500 
L 594 4494 
L 1172 4494 
z
" transform="scale(0.015625)"/>
        <path id="DejaVuSans-72" d="M 2631 2963 
Q 2534 3019 2420 3045 
Q 2306 3072 2169 3072 
Q 1681 3072 1420 2755 
Q 1159 2438 1159 1844 
L 1159 0 
L 581 0 
L 581 3500 
L 1159 3500 
L 1159 2956 
Q 1341 3275 1631 3429 
Q 1922 3584 2338 3584 
Q 2397 3584 2469 3576 
Q 2541 3569 2628 3553 
L 2631 2963 
z
" transform="scale(0.015625)"/>
        <path id="DejaVuSans-63" d="M 3122 3366 
L 3122 2828 
Q 2878 2963 2633 3030 
Q 2388 3097 2138 3097 
Q 1578 3097 1268 2742 
Q 959 2388 959 1747 
Q 959 1106 1268 751 
Q 1578 397 2138 397 
Q 2388 397 2633 464 
Q 2878 531 3122 666 
L 3122 134 
Q 2881 22 2623 -34 
Q 2366 -91 2075 -91 
Q 1284 -91 818 406 
Q 353 903 353 1747 
Q 353 2603 823 3093 
Q 1294 3584 2113 3584 
Q 2378 3584 2631 3529 
Q 2884 3475 3122 3366 
z
" transform="scale(0.015625)"/>
        <path id="DejaVuSans-61" d="M 2194 1759 
Q 1497 1759 1228 1600 
Q 959 1441 959 1056 
Q 959 750 1161 570 
Q 1363 391 1709 391 
Q 2188 391 2477 730 
Q 2766 1069 2766 1631 
L 2766 1759 
L 2194 1759 
z
M 3341 1997 
L 3341 0 
L 2766 0 
L 2766 531 
Q 2569 213 2275 61 
Q 1981 -91 1556 -91 
Q 1019 -91 701 211 
Q 384 513 384 1019 
Q 384 1609 779 1909 
Q 1175 2209 1959 2209 
L 2766 2209 
L 2766 2266 
Q 2766 2663 2505 2880 
Q 2244 3097 1772 3097 
Q 1472 3097 1187 3025 
Q 903 2953 641 2809 
L 641 3341 
Q 956 3463 1253 3523 
Q 1550 3584 1831 3584 
Q 2591 3584 2966 3190 
Q 3341 2797 3341 1997 
z
" transform="scale(0.015625)"/>
       </defs>
       <use xlink:href="#DejaVuSans-4e"/>
       <use xlink:href="#DejaVuSans-6f" transform="translate(74.804688 0)"/>
       <use xlink:href="#DejaVuSans-20" transform="translate(135.986328 0)"/>
       <use xlink:href="#DejaVuSans-73" transform="translate(167.773438 0)"/>
       <use xlink:href="#DejaVuSans-74" transform="translate(219.873047 0)"/>
       <use xlink:href="#DejaVuSans-72" transform="translate(259.082031 0)"/>
       <use xlink:href="#DejaVuSans-75" transform="translate(300.195312 0)"/>
       <use xlink:href="#DejaVuSans-63" transform="translate(363.574219 0)"/>
       <use xlink:href="#DejaVuSans-74" transform="translate(418.554688 0)"/>
       <use xlink:href="#DejaVuSans-75" transform="translate(457.763672 0)"/>
       <use xlink:href="#DejaVuSans-72" transform="translate(521.142578 0)"/>
       <use xlink:href="#DejaVuSans-61" transform="translate(562.255859 0)"/>
       <use xlink:href="#DejaVuSans-6c" transform="translate(623.535156 0)"/>
      </g>
      <!-- plasticity -->
      <g transform="translate(168.575515 297.859437) scale(0.08 -0.08)">
       <defs>
        <path id="DejaVuSans-70" d="M 1159 525 
L 1159 -1331 
L 581 -1331 
L 581 3500 
L 1159 3500 
L 1159 2969 
Q 1341 3281 1617 3432 
Q 1894 3584 2278 3584 
Q 2916 3584 3314 3078 
Q 3713 2572 3713 1747 
Q 3713 922 3314 415 
Q 2916 -91 2278 -91 
Q 1894 -91 1617 61 
Q 1341 213 1159 525 
z
M 3116 1747 
Q 3116 2381 2855 2742 
Q 2594 3103 2138 3103 
Q 1681 3103 1420 2742 
Q 1159 2381 1159 1747 
Q 1159 1113 1420 752 
Q 1681 391 2138 391 
Q 2594 391 2855 752 
Q 3116 1113 3116 1747 
z
" transform="scale(0.015625)"/>
        <path id="DejaVuSans-69" d="M 603 3500 
L 1178 3500 
L 1178 0 
L 603 0 
L 603 3500 
z
M 603 4863 
L 1178 4863 
L 1178 4134 
L 603 4134 
L 603 4863 
z
" transform="scale(0.015625)"/>
        <path id="DejaVuSans-79" d="M 2059 -325 
Q 1816 -950 1584 -1140 
Q 1353 -1331 966 -1331 
L 506 -1331 
L 506 -850 
L 844 -850 
Q 1081 -850 1212 -737 
Q 1344 -625 1503 -206 
L 1606 56 
L 191 3500 
L 800 3500 
L 1894 763 
L 2988 3500 
L 3597 3500 
L 2059 -325 
z
" transform="scale(0.015625)"/>
       </defs>
       <use xlink:href="#DejaVuSans-70"/>
       <use xlink:href="#DejaVuSans-6c" transform="translate(63.476562 0)"/>
       <use xlink:href="#DejaVuSans-61" transform="translate(91.259766 0)"/>
       <use xlink:href="#DejaVuSans-73" transform="translate(152.539062 0)"/>
       <use xlink:href="#DejaVuSans-74" transform="translate(204.638672 0)"/>
       <use xlink:href="#DejaVuSans-69" transform="translate(243.847656 0)"/>
       <use xlink:href="#DejaVuSans-63" transform="translate(271.630859 0)"/>
       <use xlink:href="#DejaVuSans-69" transform="translate(326.611328 0)"/>
       <use xlink:href="#DejaVuSans-74" transform="translate(354.394531 0)"/>
       <use xlink:href="#DejaVuSans-79" transform="translate(393.603516 0)"/>
      </g>
     </g>
    </g>
    <g id="xtick_3">
     <g id="line2d_5">
      <path d="M 283.17886 275.822437 
L 283.17886 20.798437 
" clip-path="url(#p38fad6bd8d)" style="fill: none; stroke: #dbdbdb; stroke-width: 0.6; stroke-linecap: square"/>
     </g>
     <g id="line2d_6">
      <g>
       <use xlink:href="#m586638cbe5" x="283.17886" y="275.822437" style="stroke: #000000; stroke-width: 0.8"/>
      </g>
     </g>
     <g id="text_3">
      <!-- No context -->
      <g transform="translate(261.390735 288.901187) scale(0.08 -0.08)">
       <defs>
        <path id="DejaVuSans-6e" d="M 3513 2113 
L 3513 0 
L 2938 0 
L 2938 2094 
Q 2938 2591 2744 2837 
Q 2550 3084 2163 3084 
Q 1697 3084 1428 2787 
Q 1159 2491 1159 1978 
L 1159 0 
L 581 0 
L 581 3500 
L 1159 3500 
L 1159 2956 
Q 1366 3272 1645 3428 
Q 1925 3584 2291 3584 
Q 2894 3584 3203 3211 
Q 3513 2838 3513 2113 
z
" transform="scale(0.015625)"/>
        <path id="DejaVuSans-78" d="M 3513 3500 
L 2247 1797 
L 3578 0 
L 2900 0 
L 1881 1375 
L 863 0 
L 184 0 
L 1544 1831 
L 300 3500 
L 978 3500 
L 1906 2253 
L 2834 3500 
L 3513 3500 
z
" transform="scale(0.015625)"/>
       </defs>
       <use xlink:href="#DejaVuSans-4e"/>
       <use xlink:href="#DejaVuSans-6f" transform="translate(74.804688 0)"/>
       <use xlink:href="#DejaVuSans-20" transform="translate(135.986328 0)"/>
       <use xlink:href="#DejaVuSans-63" transform="translate(167.773438 0)"/>
       <use xlink:href="#DejaVuSans-6f" transform="translate(222.753906 0)"/>
       <use xlink:href="#DejaVuSans-6e" transform="translate(283.935547 0)"/>
       <use xlink:href="#DejaVuSans-74" transform="translate(347.314453 0)"/>
       <use xlink:href="#DejaVuSans-65" transform="translate(386.523438 0)"/>
       <use xlink:href="#DejaVuSans-78" transform="translate(446.296875 0)"/>
       <use xlink:href="#DejaVuSans-74" transform="translate(505.476562 0)"/>
      </g>
      <!-- binding -->
      <g transform="translate(268.268235 297.859437) scale(0.08 -0.08)">
       <defs>
        <path id="DejaVuSans-62" d="M 3116 1747 
Q 3116 2381 2855 2742 
Q 2594 3103 2138 3103 
Q 1681 3103 1420 2742 
Q 1159 2381 1159 1747 
Q 1159 1113 1420 752 
Q 1681 391 2138 391 
Q 2594 391 2855 752 
Q 3116 1113 3116 1747 
z
M 1159 2969 
Q 1341 3281 1617 3432 
Q 1894 3584 2278 3584 
Q 2916 3584 3314 3078 
Q 3713 2572 3713 1747 
Q 3713 922 3314 415 
Q 2916 -91 2278 -91 
Q 1894 -91 1617 61 
Q 1341 213 1159 525 
L 1159 0 
L 581 0 
L 581 4863 
L 1159 4863 
L 1159 2969 
z
" transform="scale(0.015625)"/>
        <path id="DejaVuSans-67" d="M 2906 1791 
Q 2906 2416 2648 2759 
Q 2391 3103 1925 3103 
Q 1463 3103 1205 2759 
Q 947 2416 947 1791 
Q 947 1169 1205 825 
Q 1463 481 1925 481 
Q 2391 481 2648 825 
Q 2906 1169 2906 1791 
z
M 3481 434 
Q 3481 -459 3084 -895 
Q 2688 -1331 1869 -1331 
Q 1566 -1331 1297 -1286 
Q 1028 -1241 775 -1147 
L 775 -588 
Q 1028 -725 1275 -790 
Q 1522 -856 1778 -856 
Q 2344 -856 2625 -561 
Q 2906 -266 2906 331 
L 2906 616 
Q 2728 306 2450 153 
Q 2172 0 1784 0 
Q 1141 0 747 490 
Q 353 981 353 1791 
Q 353 2603 747 3093 
Q 1141 3584 1784 3584 
Q 2172 3584 2450 3431 
Q 2728 3278 2906 2969 
L 2906 3500 
L 3481 3500 
L 3481 434 
z
" transform="scale(0.015625)"/>
       </defs>
       <use xlink:href="#DejaVuSans-62"/>
       <use xlink:href="#DejaVuSans-69" transform="translate(63.476562 0)"/>
       <use xlink:href="#DejaVuSans-6e" transform="translate(91.259766 0)"/>
       <use xlink:href="#DejaVuSans-64" transform="translate(154.638672 0)"/>
       <use xlink:href="#DejaVuSans-69" transform="translate(218.115234 0)"/>
       <use xlink:href="#DejaVuSans-6e" transform="translate(245.898438 0)"/>
       <use xlink:href="#DejaVuSans-67" transform="translate(309.277344 0)"/>
      </g>
     </g>
    </g>
    <g id="xtick_4">
     <g id="line2d_7">
      <path d="M 379.670955 275.822437 
L 379.670955 20.798437 
" clip-path="url(#p38fad6bd8d)" style="fill: none; stroke: #dbdbdb; stroke-width: 0.6; stroke-linecap: square"/>
     </g>
     <g id="line2d_8">
      <g>
       <use xlink:href="#m586638cbe5" x="379.670955" y="275.822437" style="stroke: #000000; stroke-width: 0.8"/>
      </g>
     </g>
     <g id="text_4">
      <!-- No recurrence -->
      <g transform="translate(351.42408 288.901187) scale(0.08 -0.08)">
       <use xlink:href="#DejaVuSans-4e"/>
       <use xlink:href="#DejaVuSans-6f" transform="translate(74.804688 0)"/>
       <use xlink:href="#DejaVuSans-20" transform="translate(135.986328 0)"/>
       <use xlink:href="#DejaVuSans-72" transform="translate(167.773438 0)"/>
       <use xlink:href="#DejaVuSans-65" transform="translate(206.636719 0)"/>
       <use xlink:href="#DejaVuSans-63" transform="translate(268.160156 0)"/>
       <use xlink:href="#DejaVuSans-75" transform="translate(323.140625 0)"/>
       <use xlink:href="#DejaVuSans-72" transform="translate(386.519531 0)"/>
       <use xlink:href="#DejaVuSans-72" transform="translate(425.882812 0)"/>
       <use xlink:href="#DejaVuSans-65" transform="translate(464.746094 0)"/>
       <use xlink:href="#DejaVuSans-6e" transform="translate(526.269531 0)"/>
       <use xlink:href="#DejaVuSans-63" transform="translate(589.648438 0)"/>
       <use xlink:href="#DejaVuSans-65" transform="translate(644.628906 0)"/>
      </g>
      <!-- at eval -->
      <g transform="translate(365.98908 297.859437) scale(0.08 -0.08)">
       <defs>
        <path id="DejaVuSans-76" d="M 191 3500 
L 800 3500 
L 1894 563 
L 2988 3500 
L 3597 3500 
L 2284 0 
L 1503 0 
L 191 3500 
z
" transform="scale(0.015625)"/>
       </defs>
       <use xlink:href="#DejaVuSans-61"/>
       <use xlink:href="#DejaVuSans-74" transform="translate(61.279297 0)"/>
       <use xlink:href="#DejaVuSans-20" transform="translate(100.488281 0)"/>
       <use xlink:href="#DejaVuSans-65" transform="translate(132.275391 0)"/>
       <use xlink:href="#DejaVuSans-76" transform="translate(193.798828 0)"/>
       <use xlink:href="#DejaVuSans-61" transform="translate(252.978516 0)"/>
       <use xlink:href="#DejaVuSans-6c" transform="translate(314.257812 0)"/>
      </g>
     </g>
    </g>
   </g>
   <g id="matplotlib.axis_2">
    <g id="ytick_1">
     <g id="line2d_9">
      <path d="M 39.632812 275.822437 
L 430.232813 275.822437 
" clip-path="url(#p38fad6bd8d)" style="fill: none; stroke: #dbdbdb; stroke-width: 0.6; stroke-linecap: square"/>
     </g>
     <g id="line2d_10">
      <defs>
       <path id="m9beac92d1f" d="M 0 0 
L -3.5 0 
" style="stroke: #000000; stroke-width: 0.8"/>
      </defs>
      <g>
       <use xlink:href="#m9beac92d1f" x="39.632812" y="275.822437" style="stroke: #000000; stroke-width: 0.8"/>
      </g>
     </g>
     <g id="text_5">
      <!-- 0.0 -->
      <g transform="translate(19.910312 278.861812) scale(0.08 -0.08)">
       <defs>
        <path id="DejaVuSans-30" d="M 2034 4250 
Q 1547 4250 1301 3770 
Q 1056 3291 1056 2328 
Q 1056 1369 1301 889 
Q 1547 409 2034 409 
Q 2525 409 2770 889 
Q 3016 1369 3016 2328 
Q 3016 3291 2770 3770 
Q 2525 4250 2034 4250 
z
M 2034 4750 
Q 2819 4750 3233 4129 
Q 3647 3509 3647 2328 
Q 3647 1150 3233 529 
Q 2819 -91 2034 -91 
Q 1250 -91 836 529 
Q 422 1150 422 2328 
Q 422 3509 836 4129 
Q 1250 4750 2034 4750 
z
" transform="scale(0.015625)"/>
        <path id="DejaVuSans-2e" d="M 684 794 
L 1344 794 
L 1344 0 
L 684 0 
L 684 794 
z
" transform="scale(0.015625)"/>
       </defs>
       <use xlink:href="#DejaVuSans-30"/>
       <use xlink:href="#DejaVuSans-2e" transform="translate(63.623047 0)"/>
       <use xlink:href="#DejaVuSans-30" transform="translate(95.410156 0)"/>
      </g>
     </g>
    </g>
    <g id="ytick_2">
     <g id="line2d_11">
      <path d="M 39.632812 228.595771 
L 430.232813 228.595771 
" clip-path="url(#p38fad6bd8d)" style="fill: none; stroke: #dbdbdb; stroke-width: 0.6; stroke-linecap: square"/>
     </g>
     <g id="line2d_12">
      <g>
       <use xlink:href="#m9beac92d1f" x="39.632812" y="228.595771" style="stroke: #000000; stroke-width: 0.8"/>
      </g>
     </g>
     <g id="text_6">
      <!-- 0.2 -->
      <g transform="translate(19.910312 231.635146) scale(0.08 -0.08)">
       <defs>
        <path id="DejaVuSans-32" d="M 1228 531 
L 3431 531 
L 3431 0 
L 469 0 
L 469 531 
Q 828 903 1448 1529 
Q 2069 2156 2228 2338 
Q 2531 2678 2651 2914 
Q 2772 3150 2772 3378 
Q 2772 3750 2511 3984 
Q 2250 4219 1831 4219 
Q 1534 4219 1204 4116 
Q 875 4013 500 3803 
L 500 4441 
Q 881 4594 1212 4672 
Q 1544 4750 1819 4750 
Q 2544 4750 2975 4387 
Q 3406 4025 3406 3419 
Q 3406 3131 3298 2873 
Q 3191 2616 2906 2266 
Q 2828 2175 2409 1742 
Q 1991 1309 1228 531 
z
" transform="scale(0.015625)"/>
       </defs>
       <use xlink:href="#DejaVuSans-30"/>
       <use xlink:href="#DejaVuSans-2e" transform="translate(63.623047 0)"/>
       <use xlink:href="#DejaVuSans-32" transform="translate(95.410156 0)"/>
      </g>
     </g>
    </g>
    <g id="ytick_3">
     <g id="line2d_13">
      <path d="M 39.632812 181.369104 
L 430.232813 181.369104 
" clip-path="url(#p38fad6bd8d)" style="fill: none; stroke: #dbdbdb; stroke-width: 0.6; stroke-linecap: square"/>
     </g>
     <g id="line2d_14">
      <g>
       <use xlink:href="#m9beac92d1f" x="39.632812" y="181.369104" style="stroke: #000000; stroke-width: 0.8"/>
      </g>
     </g>
     <g id="text_7">
      <!-- 0.4 -->
      <g transform="translate(19.910312 184.408479) scale(0.08 -0.08)">
       <defs>
        <path id="DejaVuSans-34" d="M 2419 4116 
L 825 1625 
L 2419 1625 
L 2419 4116 
z
M 2253 4666 
L 3047 4666 
L 3047 1625 
L 3713 1625 
L 3713 1100 
L 3047 1100 
L 3047 0 
L 2419 0 
L 2419 1100 
L 313 1100 
L 313 1709 
L 2253 4666 
z
" transform="scale(0.015625)"/>
       </defs>
       <use xlink:href="#DejaVuSans-30"/>
       <use xlink:href="#DejaVuSans-2e" transform="translate(63.623047 0)"/>
       <use xlink:href="#DejaVuSans-34" transform="translate(95.410156 0)"/>
      </g>
     </g>
    </g>
    <g id="ytick_4">
     <g id="line2d_15">
      <path d="M 39.632812 134.142437 
L 430.232813 134.142437 
" clip-path="url(#p38fad6bd8d)" style="fill: none; stroke: #dbdbdb; stroke-width: 0.6; stroke-linecap: square"/>
     </g>
     <g id="line2d_16">
      <g>
       <use xlink:href="#m9beac92d1f" x="39.632812" y="134.142437" style="stroke: #000000; stroke-width: 0.8"/>
      </g>
     </g>
     <g id="text_8">
      <!-- 0.6 -->
      <g transform="translate(19.910312 137.181812) scale(0.08 -0.08)">
       <defs>
        <path id="DejaVuSans-36" d="M 2113 2584 
Q 1688 2584 1439 2293 
Q 1191 2003 1191 1497 
Q 1191 994 1439 701 
Q 1688 409 2113 409 
Q 2538 409 2786 701 
Q 3034 994 3034 1497 
Q 3034 2003 2786 2293 
Q 2538 2584 2113 2584 
z
M 3366 4563 
L 3366 3988 
Q 3128 4100 2886 4159 
Q 2644 4219 2406 4219 
Q 1781 4219 1451 3797 
Q 1122 3375 1075 2522 
Q 1259 2794 1537 2939 
Q 1816 3084 2150 3084 
Q 2853 3084 3261 2657 
Q 3669 2231 3669 1497 
Q 3669 778 3244 343 
Q 2819 -91 2113 -91 
Q 1303 -91 875 529 
Q 447 1150 447 2328 
Q 447 3434 972 4092 
Q 1497 4750 2381 4750 
Q 2619 4750 2861 4703 
Q 3103 4656 3366 4563 
z
" transform="scale(0.015625)"/>
       </defs>
       <use xlink:href="#DejaVuSans-30"/>
       <use xlink:href="#DejaVuSans-2e" transform="translate(63.623047 0)"/>
       <use xlink:href="#DejaVuSans-36" transform="translate(95.410156 0)"/>
      </g>
     </g>
    </g>
    <g id="ytick_5">
     <g id="line2d_17">
      <path d="M 39.632812 86.915771 
L 430.232813 86.915771 
" clip-path="url(#p38fad6bd8d)" style="fill: none; stroke: #dbdbdb; stroke-width: 0.6; stroke-linecap: square"/>
     </g>
     <g id="line2d_18">
      <g>
       <use xlink:href="#m9beac92d1f" x="39.632812" y="86.915771" style="stroke: #000000; stroke-width: 0.8"/>
      </g>
     </g>
     <g id="text_9">
      <!-- 0.8 -->
      <g transform="translate(19.910312 89.955146) scale(0.08 -0.08)">
       <defs>
        <path id="DejaVuSans-38" d="M 2034 2216 
Q 1584 2216 1326 1975 
Q 1069 1734 1069 1313 
Q 1069 891 1326 650 
Q 1584 409 2034 409 
Q 2484 409 2743 651 
Q 3003 894 3003 1313 
Q 3003 1734 2745 1975 
Q 2488 2216 2034 2216 
z
M 1403 2484 
Q 997 2584 770 2862 
Q 544 3141 544 3541 
Q 544 4100 942 4425 
Q 1341 4750 2034 4750 
Q 2731 4750 3128 4425 
Q 3525 4100 3525 3541 
Q 3525 3141 3298 2862 
Q 3072 2584 2669 2484 
Q 3125 2378 3379 2068 
Q 3634 1759 3634 1313 
Q 3634 634 3220 271 
Q 2806 -91 2034 -91 
Q 1263 -91 848 271 
Q 434 634 434 1313 
Q 434 1759 690 2068 
Q 947 2378 1403 2484 
z
M 1172 3481 
Q 1172 3119 1398 2916 
Q 1625 2713 2034 2713 
Q 2441 2713 2670 2916 
Q 2900 3119 2900 3481 
Q 2900 3844 2670 4047 
Q 2441 4250 2034 4250 
Q 1625 4250 1398 4047 
Q 1172 3844 1172 3481 
z
" transform="scale(0.015625)"/>
       </defs>
       <use xlink:href="#DejaVuSans-30"/>
       <use xlink:href="#DejaVuSans-2e" transform="translate(63.623047 0)"/>
       <use xlink:href="#DejaVuSans-38" transform="translate(95.410156 0)"/>
      </g>
     </g>
    </g>
    <g id="ytick_6">
     <g id="line2d_19">
      <path d="M 39.632812 39.689104 
L 430.232813 39.689104 
" clip-path="url(#p38fad6bd8d)" style="fill: none; stroke: #dbdbdb; stroke-width: 0.6; stroke-linecap: square"/>
     </g>
     <g id="line2d_20">
      <g>
       <use xlink:href="#m9beac92d1f" x="39.632812" y="39.689104" style="stroke: #000000; stroke-width: 0.8"/>
      </g>
     </g>
     <g id="text_10">
      <!-- 1.0 -->
      <g transform="translate(19.910312 42.728479) scale(0.08 -0.08)">
       <defs>
        <path id="DejaVuSans-31" d="M 794 531 
L 1825 531 
L 1825 4091 
L 703 3866 
L 703 4441 
L 1819 4666 
L 2450 4666 
L 2450 531 
L 3481 531 
L 3481 0 
L 794 0 
L 794 531 
z
" transform="scale(0.015625)"/>
       </defs>
       <use xlink:href="#DejaVuSans-31"/>
       <use xlink:href="#DejaVuSans-2e" transform="translate(63.623047 0)"/>
       <use xlink:href="#DejaVuSans-30" transform="translate(95.410156 0)"/>
      </g>
     </g>
    </g>
    <g id="text_11">
     <!-- Accuracy -->
     <g transform="translate(14.038594 168.85575) rotate(-90) scale(0.09 -0.09)">
      <defs>
       <path id="DejaVuSans-41" d="M 2188 4044 
L 1331 1722 
L 3047 1722 
L 2188 4044 
z
M 1831 4666 
L 2547 4666 
L 4325 0 
L 3669 0 
L 3244 1197 
L 1141 1197 
L 716 0 
L 50 0 
L 1831 4666 
z
" transform="scale(0.015625)"/>
      </defs>
      <use xlink:href="#DejaVuSans-41"/>
      <use xlink:href="#DejaVuSans-63" transform="translate(66.658203 0)"/>
      <use xlink:href="#DejaVuSans-63" transform="translate(121.638672 0)"/>
      <use xlink:href="#DejaVuSans-75" transform="translate(176.619141 0)"/>
      <use xlink:href="#DejaVuSans-72" transform="translate(239.998047 0)"/>
      <use xlink:href="#DejaVuSans-61" transform="translate(281.111328 0)"/>
      <use xlink:href="#DejaVuSans-63" transform="translate(342.390625 0)"/>
      <use xlink:href="#DejaVuSans-79" transform="translate(397.371094 0)"/>
     </g>
    </g>
   </g>
   <g id="LineCollection_1">
    <path d="M 73.791014 39.689104 
L 73.791014 39.689104 
" clip-path="url(#p38fad6bd8d)" style="fill: none; stroke: #000000; stroke-width: 1.5"/>
    <path d="M 170.283109 269.516614 
L 170.283109 268.610038 
" clip-path="url(#p38fad6bd8d)" style="fill: none; stroke: #000000; stroke-width: 1.5"/>
    <path d="M 266.775204 190.302535 
L 266.775204 189.592236 
" clip-path="url(#p38fad6bd8d)" style="fill: none; stroke: #000000; stroke-width: 1.5"/>
    <path d="M 363.267299 39.689104 
L 363.267299 39.689104 
" clip-path="url(#p38fad6bd8d)" style="fill: none; stroke: #000000; stroke-width: 1.5"/>
   </g>
   <g id="line2d_21">
    <defs>
     <path id="m7231bc6f9c" d="M 3 0 
L -3 -0 
" style="stroke: #000000"/>
    </defs>
    <g clip-path="url(#p38fad6bd8d)">
     <use xlink:href="#m7231bc6f9c" x="73.791014" y="39.689104" style="fill: #1f77b4; stroke: #000000"/>
     <use xlink:href="#m7231bc6f9c" x="170.283109" y="269.516614" style="fill: #1f77b4; stroke: #000000"/>
     <use xlink:href="#m7231bc6f9c" x="266.775204" y="190.302535" style="fill: #1f77b4; stroke: #000000"/>
     <use xlink:href="#m7231bc6f9c" x="363.267299" y="39.689104" style="fill: #1f77b4; stroke: #000000"/>
    </g>
   </g>
   <g id="line2d_22">
    <g clip-path="url(#p38fad6bd8d)">
     <use xlink:href="#m7231bc6f9c" x="73.791014" y="39.689104" style="fill: #1f77b4; stroke: #000000"/>
     <use xlink:href="#m7231bc6f9c" x="170.283109" y="268.610038" style="fill: #1f77b4; stroke: #000000"/>
     <use xlink:href="#m7231bc6f9c" x="266.775204" y="189.592236" style="fill: #1f77b4; stroke: #000000"/>
     <use xlink:href="#m7231bc6f9c" x="363.267299" y="39.689104" style="fill: #1f77b4; stroke: #000000"/>
    </g>
   </g>
   <g id="LineCollection_2">
    <path d="M 106.598326 39.689104 
L 106.598326 39.689104 
" clip-path="url(#p38fad6bd8d)" style="fill: none; stroke: #000000; stroke-width: 1.5"/>
    <path d="M 203.090421 268.785098 
L 203.090421 267.896467 
" clip-path="url(#p38fad6bd8d)" style="fill: none; stroke: #000000; stroke-width: 1.5"/>
    <path d="M 299.582516 265.604382 
L 299.582516 263.971319 
" clip-path="url(#p38fad6bd8d)" style="fill: none; stroke: #000000; stroke-width: 1.5"/>
    <path d="M 396.074611 266.793123 
L 396.074611 265.898226 
" clip-path="url(#p38fad6bd8d)" style="fill: none; stroke: #000000; stroke-width: 1.5"/>
   </g>
   <g id="line2d_23">
    <g clip-path="url(#p38fad6bd8d)">
     <use xlink:href="#m7231bc6f9c" x="106.598326" y="39.689104" style="fill: #1f77b4; stroke: #000000"/>
     <use xlink:href="#m7231bc6f9c" x="203.090421" y="268.785098" style="fill: #1f77b4; stroke: #000000"/>
     <use xlink:href="#m7231bc6f9c" x="299.582516" y="265.604382" style="fill: #1f77b4; stroke: #000000"/>
     <use xlink:href="#m7231bc6f9c" x="396.074611" y="266.793123" style="fill: #1f77b4; stroke: #000000"/>
    </g>
   </g>
   <g id="line2d_24">
    <g clip-path="url(#p38fad6bd8d)">
     <use xlink:href="#m7231bc6f9c" x="106.598326" y="39.689104" style="fill: #1f77b4; stroke: #000000"/>
     <use xlink:href="#m7231bc6f9c" x="203.090421" y="267.896467" style="fill: #1f77b4; stroke: #000000"/>
     <use xlink:href="#m7231bc6f9c" x="299.582516" y="263.971319" style="fill: #1f77b4; stroke: #000000"/>
     <use xlink:href="#m7231bc6f9c" x="396.074611" y="265.898226" style="fill: #1f77b4; stroke: #000000"/>
    </g>
   </g>
   <g id="patch_11">
    <path d="M 39.632812 275.822437 
L 39.632812 20.798437 
" style="fill: none; stroke: #000000; stroke-width: 0.8; stroke-linejoin: miter; stroke-linecap: square"/>
   </g>
   <g id="patch_12">
    <path d="M 39.632813 275.822437 
L 430.232813 275.822437 
" style="fill: none; stroke: #000000; stroke-width: 0.8; stroke-linejoin: miter; stroke-linecap: square"/>
   </g>
   <g id="text_12">
    <!-- Core ablations separate storage from route execution -->
    <g transform="translate(100.679688 14.798437) scale(0.1 -0.1)">
     <defs>
      <path id="DejaVuSans-43" d="M 4122 4306 
L 4122 3641 
Q 3803 3938 3442 4084 
Q 3081 4231 2675 4231 
Q 1875 4231 1450 3742 
Q 1025 3253 1025 2328 
Q 1025 1406 1450 917 
Q 1875 428 2675 428 
Q 3081 428 3442 575 
Q 3803 722 4122 1019 
L 4122 359 
Q 3791 134 3420 21 
Q 3050 -91 2638 -91 
Q 1578 -91 968 557 
Q 359 1206 359 2328 
Q 359 3453 968 4101 
Q 1578 4750 2638 4750 
Q 3056 4750 3426 4639 
Q 3797 4528 4122 4306 
z
" transform="scale(0.015625)"/>
      <path id="DejaVuSans-66" d="M 2375 4863 
L 2375 4384 
L 1825 4384 
Q 1516 4384 1395 4259 
Q 1275 4134 1275 3809 
L 1275 3500 
L 2222 3500 
L 2222 3053 
L 1275 3053 
L 1275 0 
L 697 0 
L 697 3053 
L 147 3053 
L 147 3500 
L 697 3500 
L 697 3744 
Q 697 4328 969 4595 
Q 1241 4863 1831 4863 
L 2375 4863 
z
" transform="scale(0.015625)"/>
     </defs>
     <use xlink:href="#DejaVuSans-43"/>
     <use xlink:href="#DejaVuSans-6f" transform="translate(69.824219 0)"/>
     <use xlink:href="#DejaVuSans-72" transform="translate(131.005859 0)"/>
     <use xlink:href="#DejaVuSans-65" transform="translate(169.869141 0)"/>
     <use xlink:href="#DejaVuSans-20" transform="translate(231.392578 0)"/>
     <use xlink:href="#DejaVuSans-61" transform="translate(263.179688 0)"/>
     <use xlink:href="#DejaVuSans-62" transform="translate(324.458984 0)"/>
     <use xlink:href="#DejaVuSans-6c" transform="translate(387.935547 0)"/>
     <use xlink:href="#DejaVuSans-61" transform="translate(415.71875 0)"/>
     <use xlink:href="#DejaVuSans-74" transform="translate(476.998047 0)"/>
     <use xlink:href="#DejaVuSans-69" transform="translate(516.207031 0)"/>
     <use xlink:href="#DejaVuSans-6f" transform="translate(543.990234 0)"/>
     <use xlink:href="#DejaVuSans-6e" transform="translate(605.171875 0)"/>
     <use xlink:href="#DejaVuSans-73" transform="translate(668.550781 0)"/>
     <use xlink:href="#DejaVuSans-20" transform="translate(720.650391 0)"/>
     <use xlink:href="#DejaVuSans-73" transform="translate(752.4375 0)"/>
     <use xlink:href="#DejaVuSans-65" transform="translate(804.537109 0)"/>
     <use xlink:href="#DejaVuSans-70" transform="translate(866.060547 0)"/>
     <use xlink:href="#DejaVuSans-61" transform="translate(929.537109 0)"/>
     <use xlink:href="#DejaVuSans-72" transform="translate(990.816406 0)"/>
     <use xlink:href="#DejaVuSans-61" transform="translate(1031.929688 0)"/>
     <use xlink:href="#DejaVuSans-74" transform="translate(1093.208984 0)"/>
     <use xlink:href="#DejaVuSans-65" transform="translate(1132.417969 0)"/>
     <use xlink:href="#DejaVuSans-20" transform="translate(1193.941406 0)"/>
     <use xlink:href="#DejaVuSans-73" transform="translate(1225.728516 0)"/>
     <use xlink:href="#DejaVuSans-74" transform="translate(1277.828125 0)"/>
     <use xlink:href="#DejaVuSans-6f" transform="translate(1317.037109 0)"/>
     <use xlink:href="#DejaVuSans-72" transform="translate(1378.21875 0)"/>
     <use xlink:href="#DejaVuSans-61" transform="translate(1419.332031 0)"/>
     <use xlink:href="#DejaVuSans-67" transform="translate(1480.611328 0)"/>
     <use xlink:href="#DejaVuSans-65" transform="translate(1544.087891 0)"/>
     <use xlink:href="#DejaVuSans-20" transform="translate(1605.611328 0)"/>
     <use xlink:href="#DejaVuSans-66" transform="translate(1637.398438 0)"/>
     <use xlink:href="#DejaVuSans-72" transform="translate(1672.603516 0)"/>
     <use xlink:href="#DejaVuSans-6f" transform="translate(1711.466797 0)"/>
     <use xlink:href="#DejaVuSans-6d" transform="translate(1772.648438 0)"/>
     <use xlink:href="#DejaVuSans-20" transform="translate(1870.060547 0)"/>
     <use xlink:href="#DejaVuSans-72" transform="translate(1901.847656 0)"/>
     <use xlink:href="#DejaVuSans-6f" transform="translate(1940.710938 0)"/>
     <use xlink:href="#DejaVuSans-75" transform="translate(2001.892578 0)"/>
     <use xlink:href="#DejaVuSans-74" transform="translate(2065.271484 0)"/>
     <use xlink:href="#DejaVuSans-65" transform="translate(2104.480469 0)"/>
     <use xlink:href="#DejaVuSans-20" transform="translate(2166.003906 0)"/>
     <use xlink:href="#DejaVuSans-65" transform="translate(2197.791016 0)"/>
     <use xlink:href="#DejaVuSans-78" transform="translate(2257.564453 0)"/>
     <use xlink:href="#DejaVuSans-65" transform="translate(2313.619141 0)"/>
     <use xlink:href="#DejaVuSans-63" transform="translate(2375.142578 0)"/>
     <use xlink:href="#DejaVuSans-75" transform="translate(2430.123047 0)"/>
     <use xlink:href="#DejaVuSans-74" transform="translate(2493.501953 0)"/>
     <use xlink:href="#DejaVuSans-69" transform="translate(2532.710938 0)"/>
     <use xlink:href="#DejaVuSans-6f" transform="translate(2560.494141 0)"/>
     <use xlink:href="#DejaVuSans-6e" transform="translate(2621.675781 0)"/>
    </g>
   </g>
   <g id="legend_1">
    <g id="patch_13">
     <path d="M 313.221563 34.077187 
L 329.221563 34.077187 
L 329.221563 28.477187 
L 313.221563 28.477187 
z
" style="fill: #333333"/>
    </g>
    <g id="text_13">
     <!-- route table accuracy -->
     <g transform="translate(335.621562 34.077187) scale(0.08 -0.08)">
      <use xlink:href="#DejaVuSans-72"/>
      <use xlink:href="#DejaVuSans-6f" transform="translate(38.863281 0)"/>
      <use xlink:href="#DejaVuSans-75" transform="translate(100.044922 0)"/>
      <use xlink:href="#DejaVuSans-74" transform="translate(163.423828 0)"/>
      <use xlink:href="#DejaVuSans-65" transform="translate(202.632812 0)"/>
      <use xlink:href="#DejaVuSans-20" transform="translate(264.15625 0)"/>
      <use xlink:href="#DejaVuSans-74" transform="translate(295.943359 0)"/>
      <use xlink:href="#DejaVuSans-61" transform="translate(335.152344 0)"/>
      <use xlink:href="#DejaVuSans-62" transform="translate(396.431641 0)"/>
      <use xlink:href="#DejaVuSans-6c" transform="translate(459.908203 0)"/>
      <use xlink:href="#DejaVuSans-65" transform="translate(487.691406 0)"/>
      <use xlink:href="#DejaVuSans-20" transform="translate(549.214844 0)"/>
      <use xlink:href="#DejaVuSans-61" transform="translate(581.001953 0)"/>
      <use xlink:href="#DejaVuSans-63" transform="translate(642.28125 0)"/>
      <use xlink:href="#DejaVuSans-63" transform="translate(697.261719 0)"/>
      <use xlink:href="#DejaVuSans-75" transform="translate(752.242188 0)"/>
      <use xlink:href="#DejaVuSans-72" transform="translate(815.621094 0)"/>
      <use xlink:href="#DejaVuSans-61" transform="translate(856.734375 0)"/>
      <use xlink:href="#DejaVuSans-63" transform="translate(918.013672 0)"/>
      <use xlink:href="#DejaVuSans-79" transform="translate(972.994141 0)"/>
     </g>
    </g>
    <g id="patch_14">
     <path d="M 313.221563 45.819687 
L 329.221563 45.819687 
L 329.221563 40.219687 
L 313.221563 40.219687 
z
" style="fill: url(#hc79d24f2e2)"/>
    </g>
    <g id="text_14">
     <!-- composition accuracy -->
     <g transform="translate(335.621562 45.819687) scale(0.08 -0.08)">
      <use xlink:href="#DejaVuSans-63"/>
      <use xlink:href="#DejaVuSans-6f" transform="translate(54.980469 0)"/>
      <use xlink:href="#DejaVuSans-6d" transform="translate(116.162109 0)"/>
      <use xlink:href="#DejaVuSans-70" transform="translate(213.574219 0)"/>
      <use xlink:href="#DejaVuSans-6f" transform="translate(277.050781 0)"/>
      <use xlink:href="#DejaVuSans-73" transform="translate(338.232422 0)"/>
      <use xlink:href="#DejaVuSans-69" transform="translate(390.332031 0)"/>
      <use xlink:href="#DejaVuSans-74" transform="translate(418.115234 0)"/>
      <use xlink:href="#DejaVuSans-69" transform="translate(457.324219 0)"/>
      <use xlink:href="#DejaVuSans-6f" transform="translate(485.107422 0)"/>
      <use xlink:href="#DejaVuSans-6e" transform="translate(546.289062 0)"/>
      <use xlink:href="#DejaVuSans-20" transform="translate(609.667969 0)"/>
      <use xlink:href="#DejaVuSans-61" transform="translate(641.455078 0)"/>
      <use xlink:href="#DejaVuSans-63" transform="translate(702.734375 0)"/>
      <use xlink:href="#DejaVuSans-63" transform="translate(757.714844 0)"/>
      <use xlink:href="#DejaVuSans-75" transform="translate(812.695312 0)"/>
      <use xlink:href="#DejaVuSans-72" transform="translate(876.074219 0)"/>
      <use xlink:href="#DejaVuSans-61" transform="translate(917.1875 0)"/>
      <use xlink:href="#DejaVuSans-63" transform="translate(978.466797 0)"/>
      <use xlink:href="#DejaVuSans-79" transform="translate(1033.447266 0)"/>
     </g>
    </g>
   </g>
  </g>
 </g>
 <defs>
  <clipPath id="p38fad6bd8d">
   <rect x="39.632812" y="20.798437" width="390.6" height="255.024"/>
  </clipPath>
 </defs>
 <defs>
  <pattern id="hc79d24f2e2" patternUnits="userSpaceOnUse" x="0" y="0" width="72" height="72">
   <rect x="0" y="0" width="73" height="73" fill="#9e9e9e"/>
   <path d="M -36 36 
L 36 -36 
M -32 40 
L 40 -32 
M -28 44 
L 44 -28 
M -24 48 
L 48 -24 
M -20 52 
L 52 -20 
M -16 56 
L 56 -16 
M -12 60 
L 60 -12 
M -8 64 
L 64 -8 
M -4 68 
L 68 -4 
M 0 72 
L 72 0 
M 4 76 
L 76 4 
M 8 80 
L 80 8 
M 12 84 
L 84 12 
M 16 88 
L 88 16 
M 20 92 
L 92 20 
M 24 96 
L 96 24 
M 28 100 
L 100 28 
M 32 104 
L 104 32 
M 36 108 
L 108 36 
" style="fill: #000000; stroke: #000000; stroke-width: 1.0; stroke-linecap: butt; stroke-linejoin: miter"/>
  </pattern>
 </defs>
</svg>
