<?xml version="1.0" encoding="utf-8" standalone="no"?>
<!DOCTYPE svg PUBLIC "-//W3C//DTD SVG 1.1//EN"
  "http://www.w3.org/Graphics/SVG/1.1/DTD/svg11.dtd">
<svg xmlns:xlink="http://www.w3.org/1999/xlink" width="460.8pt" height="277.478437pt" viewBox="0 0 460.8 277.478437" xmlns="http://www.w3.org/2000/svg" version="1.1">
 <metadata>
  <rdf:RDF xmlns:dc="http://purl.org/dc/elements/1.1/" xmlns:cc="http://creativecommons.org/ns#" xmlns:rdf="http://www.w3.org/1999/02/22-rdf-syntax-ns#">
   <cc:Work>
    <dc:type rdf:resource="http://purl.org/dc/dcmitype/StillImage"/>
    <dc:date>2026-05-11T23:33:20.136464</dc:date>
    <dc:format>image/svg+xml</dc:format>
    <dc:creator>
     <cc:Agent>
      <dc:title>Matplotlib v3.10.9, https://matplotlib.org/</dc:title>
     </cc:Agent>
    </dc:creator>
   </cc:Work>
  </rdf:RDF>
 </metadata>
 <defs>
  <style type="text/css">*{stroke-linejoin: round; stroke-linecap: butt}</style>
 </defs>
 <g id="figure_1">
  <g id="patch_1">
   <path d="M 0 277.478437 
L 460.8 277.478437 
L 460.8 0 
L 0 0 
z
" style="fill: #ffffff"/>
  </g>
  <g id="axes_1">
   <g id="patch_2">
    <path d="M 29.52 95.642437 
L 118.8 95.642437 
L 118.8 58.220437 
L 29.52 58.220437 
L 29.52 95.642437 
z
" clip-path="url(#p8024add3b9)" style="fill: none; stroke: #1a1a1a; stroke-width: 1.3; stroke-linejoin: miter"/>
   </g>
   <g id="patch_3">
    <path d="M 145.584 95.642437 
L 248.256 95.642437 
L 248.256 58.220437 
L 145.584 58.220437 
L 145.584 95.642437 
z
" clip-path="url(#p8024add3b9)" style="fill: none; stroke: #1a1a1a; stroke-width: 1.3; stroke-linejoin: miter"/>
   </g>
   <g id="patch_4">
    <path d="M 275.04 95.642437 
L 364.32 95.642437 
L 364.32 58.220437 
L 275.04 58.220437 
L 275.04 95.642437 
z
" clip-path="url(#p8024add3b9)" style="fill: none; stroke: #1a1a1a; stroke-width: 1.3; stroke-linejoin: miter"/>
   </g>
   <g id="patch_5">
    <path d="M 176.832 182.960437 
L 301.824 182.960437 
L 301.824 145.538437 
L 176.832 145.538437 
L 176.832 182.960437 
z
" clip-path="url(#p8024add3b9)" style="fill: none; stroke: #1a1a1a; stroke-width: 1.3; stroke-linejoin: miter"/>
   </g>
   <g id="patch_6">
    <path d="M 328.608 182.960437 
L 422.352 182.960437 
L 422.352 145.538437 
L 328.608 145.538437 
L 328.608 182.960437 
z
" clip-path="url(#p8024add3b9)" style="fill: none; stroke: #1a1a1a; stroke-width: 1.3; stroke-linejoin: miter"/>
   </g>
   <g id="text_1">
    <!-- World/context cues -->
    <g transform="translate(30.917813 79.414875) scale(0.09 -0.09)">
     <defs>
      <path id="DejaVuSans-57" d="M 213 4666 
L 850 4666 
L 1831 722 
L 2809 4666 
L 3519 4666 
L 4500 722 
L 5478 4666 
L 6119 4666 
L 4947 0 
L 4153 0 
L 3169 4050 
L 2175 0 
L 1381 0 
L 213 4666 
z
" transform="scale(0.015625)"/>
      <path id="DejaVuSans-6f" d="M 1959 3097 
Q 1497 3097 1228 2736 
Q 959 2375 959 1747 
Q 959 1119 1226 758 
Q 1494 397 1959 397 
Q 2419 397 2687 759 
Q 2956 1122 2956 1747 
Q 2956 2369 2687 2733 
Q 2419 3097 1959 3097 
z
M 1959 3584 
Q 2709 3584 3137 3096 
Q 3566 2609 3566 1747 
Q 3566 888 3137 398 
Q 2709 -91 1959 -91 
Q 1206 -91 779 398 
Q 353 888 353 1747 
Q 353 2609 779 3096 
Q 1206 3584 1959 3584 
z
" transform="scale(0.015625)"/>
      <path id="DejaVuSans-72" d="M 2631 2963 
Q 2534 3019 2420 3045 
Q 2306 3072 2169 3072 
Q 1681 3072 1420 2755 
Q 1159 2438 1159 1844 
L 1159 0 
L 581 0 
L 581 3500 
L 1159 3500 
L 1159 2956 
Q 1341 3275 1631 3429 
Q 1922 3584 2338 3584 
Q 2397 3584 2469 3576 
Q 2541 3569 2628 3553 
L 2631 2963 
z
" transform="scale(0.015625)"/>
      <path id="DejaVuSans-6c" d="M 603 4863 
L 1178 4863 
L 1178 0 
L 603 0 
L 603 4863 
z
" transform="scale(0.015625)"/>
      <path id="DejaVuSans-64" d="M 2906 2969 
L 2906 4863 
L 3481 4863 
L 3481 0 
L 2906 0 
L 2906 525 
Q 2725 213 2448 61 
Q 2172 -91 1784 -91 
Q 1150 -91 751 415 
Q 353 922 353 1747 
Q 353 2572 751 3078 
Q 1150 3584 1784 3584 
Q 2172 3584 2448 3432 
Q 2725 3281 2906 2969 
z
M 947 1747 
Q 947 1113 1208 752 
Q 1469 391 1925 391 
Q 2381 391 2643 752 
Q 2906 1113 2906 1747 
Q 2906 2381 2643 2742 
Q 2381 3103 1925 3103 
Q 1469 3103 1208 2742 
Q 947 2381 947 1747 
z
" transform="scale(0.015625)"/>
      <path id="DejaVuSans-2f" d="M 1625 4666 
L 2156 4666 
L 531 -594 
L 0 -594 
L 1625 4666 
z
" transform="scale(0.015625)"/>
      <path id="DejaVuSans-63" d="M 3122 3366 
L 3122 2828 
Q 2878 2963 2633 3030 
Q 2388 3097 2138 3097 
Q 1578 3097 1268 2742 
Q 959 2388 959 1747 
Q 959 1106 1268 751 
Q 1578 397 2138 397 
Q 2388 397 2633 464 
Q 2878 531 3122 666 
L 3122 134 
Q 2881 22 2623 -34 
Q 2366 -91 2075 -91 
Q 1284 -91 818 406 
Q 353 903 353 1747 
Q 353 2603 823 3093 
Q 1294 3584 2113 3584 
Q 2378 3584 2631 3529 
Q 2884 3475 3122 3366 
z
" transform="scale(0.015625)"/>
      <path id="DejaVuSans-6e" d="M 3513 2113 
L 3513 0 
L 2938 0 
L 2938 2094 
Q 2938 2591 2744 2837 
Q 2550 3084 2163 3084 
Q 1697 3084 1428 2787 
Q 1159 2491 1159 1978 
L 1159 0 
L 581 0 
L 581 3500 
L 1159 3500 
L 1159 2956 
Q 1366 3272 1645 3428 
Q 1925 3584 2291 3584 
Q 2894 3584 3203 3211 
Q 3513 2838 3513 2113 
z
" transform="scale(0.015625)"/>
      <path id="DejaVuSans-74" d="M 1172 4494 
L 1172 3500 
L 2356 3500 
L 2356 3053 
L 1172 3053 
L 1172 1153 
Q 1172 725 1289 603 
Q 1406 481 1766 481 
L 2356 481 
L 2356 0 
L 1766 0 
Q 1100 0 847 248 
Q 594 497 594 1153 
L 594 3053 
L 172 3053 
L 172 3500 
L 594 3500 
L 594 4494 
L 1172 4494 
z
" transform="scale(0.015625)"/>
      <path id="DejaVuSans-65" d="M 3597 1894 
L 3597 1613 
L 953 1613 
Q 991 1019 1311 708 
Q 1631 397 2203 397 
Q 2534 397 2845 478 
Q 3156 559 3463 722 
L 3463 178 
Q 3153 47 2828 -22 
Q 2503 -91 2169 -91 
Q 1331 -91 842 396 
Q 353 884 353 1716 
Q 353 2575 817 3079 
Q 1281 3584 2069 3584 
Q 2775 3584 3186 3129 
Q 3597 2675 3597 1894 
z
M 3022 2063 
Q 3016 2534 2758 2815 
Q 2500 3097 2075 3097 
Q 1594 3097 1305 2825 
Q 1016 2553 972 2059 
L 3022 2063 
z
" transform="scale(0.015625)"/>
      <path id="DejaVuSans-78" d="M 3513 3500 
L 2247 1797 
L 3578 0 
L 2900 0 
L 1881 1375 
L 863 0 
L 184 0 
L 1544 1831 
L 300 3500 
L 978 3500 
L 1906 2253 
L 2834 3500 
L 3513 3500 
z
" transform="scale(0.015625)"/>
      <path id="DejaVuSans-20" transform="scale(0.015625)"/>
      <path id="DejaVuSans-75" d="M 544 1381 
L 544 3500 
L 1119 3500 
L 1119 1403 
Q 1119 906 1312 657 
Q 1506 409 1894 409 
Q 2359 409 2629 706 
Q 2900 1003 2900 1516 
L 2900 3500 
L 3475 3500 
L 3475 0 
L 2900 0 
L 2900 538 
Q 2691 219 2414 64 
Q 2138 -91 1772 -91 
Q 1169 -91 856 284 
Q 544 659 544 1381 
z
M 1991 3584 
L 1991 3584 
z
" transform="scale(0.015625)"/>
      <path id="DejaVuSans-73" d="M 2834 3397 
L 2834 2853 
Q 2591 2978 2328 3040 
Q 2066 3103 1784 3103 
Q 1356 3103 1142 2972 
Q 928 2841 928 2578 
Q 928 2378 1081 2264 
Q 1234 2150 1697 2047 
L 1894 2003 
Q 2506 1872 2764 1633 
Q 3022 1394 3022 966 
Q 3022 478 2636 193 
Q 2250 -91 1575 -91 
Q 1294 -91 989 -36 
Q 684 19 347 128 
L 347 722 
Q 666 556 975 473 
Q 1284 391 1588 391 
Q 1994 391 2212 530 
Q 2431 669 2431 922 
Q 2431 1156 2273 1281 
Q 2116 1406 1581 1522 
L 1381 1569 
Q 847 1681 609 1914 
Q 372 2147 372 2553 
Q 372 3047 722 3315 
Q 1072 3584 1716 3584 
Q 2034 3584 2315 3537 
Q 2597 3491 2834 3397 
z
" transform="scale(0.015625)"/>
     </defs>
     <use xlink:href="#DejaVuSans-57"/>
     <use xlink:href="#DejaVuSans-6f" transform="translate(93.001953 0)"/>
     <use xlink:href="#DejaVuSans-72" transform="translate(154.183594 0)"/>
     <use xlink:href="#DejaVuSans-6c" transform="translate(195.296875 0)"/>
     <use xlink:href="#DejaVuSans-64" transform="translate(223.080078 0)"/>
     <use xlink:href="#DejaVuSans-2f" transform="translate(286.556641 0)"/>
     <use xlink:href="#DejaVuSans-63" transform="translate(320.248047 0)"/>
     <use xlink:href="#DejaVuSans-6f" transform="translate(375.228516 0)"/>
     <use xlink:href="#DejaVuSans-6e" transform="translate(436.410156 0)"/>
     <use xlink:href="#DejaVuSans-74" transform="translate(499.789062 0)"/>
     <use xlink:href="#DejaVuSans-65" transform="translate(538.998047 0)"/>
     <use xlink:href="#DejaVuSans-78" transform="translate(598.771484 0)"/>
     <use xlink:href="#DejaVuSans-74" transform="translate(657.951172 0)"/>
     <use xlink:href="#DejaVuSans-20" transform="translate(697.160156 0)"/>
     <use xlink:href="#DejaVuSans-63" transform="translate(728.947266 0)"/>
     <use xlink:href="#DejaVuSans-75" transform="translate(783.927734 0)"/>
     <use xlink:href="#DejaVuSans-65" transform="translate(847.306641 0)"/>
     <use xlink:href="#DejaVuSans-73" transform="translate(908.830078 0)"/>
    </g>
   </g>
   <g id="text_2">
    <!-- Context-indexed -->
    <g transform="translate(159.869531 74.375859) scale(0.09 -0.09)">
     <defs>
      <path id="DejaVuSans-43" d="M 4122 4306 
L 4122 3641 
Q 3803 3938 3442 4084 
Q 3081 4231 2675 4231 
Q 1875 4231 1450 3742 
Q 1025 3253 1025 2328 
Q 1025 1406 1450 917 
Q 1875 428 2675 428 
Q 3081 428 3442 575 
Q 3803 722 4122 1019 
L 4122 359 
Q 3791 134 3420 21 
Q 3050 -91 2638 -91 
Q 1578 -91 968 557 
Q 359 1206 359 2328 
Q 359 3453 968 4101 
Q 1578 4750 2638 4750 
Q 3056 4750 3426 4639 
Q 3797 4528 4122 4306 
z
" transform="scale(0.015625)"/>
      <path id="DejaVuSans-2d" d="M 313 2009 
L 1997 2009 
L 1997 1497 
L 313 1497 
L 313 2009 
z
" transform="scale(0.015625)"/>
      <path id="DejaVuSans-69" d="M 603 3500 
L 1178 3500 
L 1178 0 
L 603 0 
L 603 3500 
z
M 603 4863 
L 1178 4863 
L 1178 4134 
L 603 4134 
L 603 4863 
z
" transform="scale(0.015625)"/>
     </defs>
     <use xlink:href="#DejaVuSans-43"/>
     <use xlink:href="#DejaVuSans-6f" transform="translate(69.824219 0)"/>
     <use xlink:href="#DejaVuSans-6e" transform="translate(131.005859 0)"/>
     <use xlink:href="#DejaVuSans-74" transform="translate(194.384766 0)"/>
     <use xlink:href="#DejaVuSans-65" transform="translate(233.59375 0)"/>
     <use xlink:href="#DejaVuSans-78" transform="translate(293.367188 0)"/>
     <use xlink:href="#DejaVuSans-74" transform="translate(352.546875 0)"/>
     <use xlink:href="#DejaVuSans-2d" transform="translate(391.755859 0)"/>
     <use xlink:href="#DejaVuSans-69" transform="translate(427.839844 0)"/>
     <use xlink:href="#DejaVuSans-6e" transform="translate(455.623047 0)"/>
     <use xlink:href="#DejaVuSans-64" transform="translate(519.001953 0)"/>
     <use xlink:href="#DejaVuSans-65" transform="translate(582.478516 0)"/>
     <use xlink:href="#DejaVuSans-78" transform="translate(642.251953 0)"/>
     <use xlink:href="#DejaVuSans-65" transform="translate(698.306641 0)"/>
     <use xlink:href="#DejaVuSans-64" transform="translate(759.830078 0)"/>
    </g>
    <!-- structural table -->
    <g transform="translate(162.333984 84.453891) scale(0.09 -0.09)">
     <defs>
      <path id="DejaVuSans-61" d="M 2194 1759 
Q 1497 1759 1228 1600 
Q 959 1441 959 1056 
Q 959 750 1161 570 
Q 1363 391 1709 391 
Q 2188 391 2477 730 
Q 2766 1069 2766 1631 
L 2766 1759 
L 2194 1759 
z
M 3341 1997 
L 3341 0 
L 2766 0 
L 2766 531 
Q 2569 213 2275 61 
Q 1981 -91 1556 -91 
Q 1019 -91 701 211 
Q 384 513 384 1019 
Q 384 1609 779 1909 
Q 1175 2209 1959 2209 
L 2766 2209 
L 2766 2266 
Q 2766 2663 2505 2880 
Q 2244 3097 1772 3097 
Q 1472 3097 1187 3025 
Q 903 2953 641 2809 
L 641 3341 
Q 956 3463 1253 3523 
Q 1550 3584 1831 3584 
Q 2591 3584 2966 3190 
Q 3341 2797 3341 1997 
z
" transform="scale(0.015625)"/>
      <path id="DejaVuSans-62" d="M 3116 1747 
Q 3116 2381 2855 2742 
Q 2594 3103 2138 3103 
Q 1681 3103 1420 2742 
Q 1159 2381 1159 1747 
Q 1159 1113 1420 752 
Q 1681 391 2138 391 
Q 2594 391 2855 752 
Q 3116 1113 3116 1747 
z
M 1159 2969 
Q 1341 3281 1617 3432 
Q 1894 3584 2278 3584 
Q 2916 3584 3314 3078 
Q 3713 2572 3713 1747 
Q 3713 922 3314 415 
Q 2916 -91 2278 -91 
Q 1894 -91 1617 61 
Q 1341 213 1159 525 
L 1159 0 
L 581 0 
L 581 4863 
L 1159 4863 
L 1159 2969 
z
" transform="scale(0.015625)"/>
     </defs>
     <use xlink:href="#DejaVuSans-73"/>
     <use xlink:href="#DejaVuSans-74" transform="translate(52.099609 0)"/>
     <use xlink:href="#DejaVuSans-72" transform="translate(91.308594 0)"/>
     <use xlink:href="#DejaVuSans-75" transform="translate(132.421875 0)"/>
     <use xlink:href="#DejaVuSans-63" transform="translate(195.800781 0)"/>
     <use xlink:href="#DejaVuSans-74" transform="translate(250.78125 0)"/>
     <use xlink:href="#DejaVuSans-75" transform="translate(289.990234 0)"/>
     <use xlink:href="#DejaVuSans-72" transform="translate(353.369141 0)"/>
     <use xlink:href="#DejaVuSans-61" transform="translate(394.482422 0)"/>
     <use xlink:href="#DejaVuSans-6c" transform="translate(455.761719 0)"/>
     <use xlink:href="#DejaVuSans-20" transform="translate(483.544922 0)"/>
     <use xlink:href="#DejaVuSans-74" transform="translate(515.332031 0)"/>
     <use xlink:href="#DejaVuSans-61" transform="translate(554.541016 0)"/>
     <use xlink:href="#DejaVuSans-62" transform="translate(615.820312 0)"/>
     <use xlink:href="#DejaVuSans-6c" transform="translate(679.296875 0)"/>
     <use xlink:href="#DejaVuSans-65" transform="translate(707.080078 0)"/>
    </g>
   </g>
   <g id="text_3">
    <!-- One-step -->
    <g transform="translate(299.159297 74.375859) scale(0.09 -0.09)">
     <defs>
      <path id="DejaVuSans-4f" d="M 2522 4238 
Q 1834 4238 1429 3725 
Q 1025 3213 1025 2328 
Q 1025 1447 1429 934 
Q 1834 422 2522 422 
Q 3209 422 3611 934 
Q 4013 1447 4013 2328 
Q 4013 3213 3611 3725 
Q 3209 4238 2522 4238 
z
M 2522 4750 
Q 3503 4750 4090 4092 
Q 4678 3434 4678 2328 
Q 4678 1225 4090 567 
Q 3503 -91 2522 -91 
Q 1538 -91 948 565 
Q 359 1222 359 2328 
Q 359 3434 948 4092 
Q 1538 4750 2522 4750 
z
" transform="scale(0.015625)"/>
      <path id="DejaVuSans-70" d="M 1159 525 
L 1159 -1331 
L 581 -1331 
L 581 3500 
L 1159 3500 
L 1159 2969 
Q 1341 3281 1617 3432 
Q 1894 3584 2278 3584 
Q 2916 3584 3314 3078 
Q 3713 2572 3713 1747 
Q 3713 922 3314 415 
Q 2916 -91 2278 -91 
Q 1894 -91 1617 61 
Q 1341 213 1159 525 
z
M 3116 1747 
Q 3116 2381 2855 2742 
Q 2594 3103 2138 3103 
Q 1681 3103 1420 2742 
Q 1159 2381 1159 1747 
Q 1159 1113 1420 752 
Q 1681 391 2138 391 
Q 2594 391 2855 752 
Q 3116 1113 3116 1747 
z
" transform="scale(0.015625)"/>
     </defs>
     <use xlink:href="#DejaVuSans-4f"/>
     <use xlink:href="#DejaVuSans-6e" transform="translate(78.710938 0)"/>
     <use xlink:href="#DejaVuSans-65" transform="translate(142.089844 0)"/>
     <use xlink:href="#DejaVuSans-2d" transform="translate(203.613281 0)"/>
     <use xlink:href="#DejaVuSans-73" transform="translate(239.697266 0)"/>
     <use xlink:href="#DejaVuSans-74" transform="translate(291.796875 0)"/>
     <use xlink:href="#DejaVuSans-65" transform="translate(331.005859 0)"/>
     <use xlink:href="#DejaVuSans-70" transform="translate(392.529297 0)"/>
    </g>
    <!-- route memories -->
    <g transform="translate(283.860703 84.453891) scale(0.09 -0.09)">
     <defs>
      <path id="DejaVuSans-6d" d="M 3328 2828 
Q 3544 3216 3844 3400 
Q 4144 3584 4550 3584 
Q 5097 3584 5394 3201 
Q 5691 2819 5691 2113 
L 5691 0 
L 5113 0 
L 5113 2094 
Q 5113 2597 4934 2840 
Q 4756 3084 4391 3084 
Q 3944 3084 3684 2787 
Q 3425 2491 3425 1978 
L 3425 0 
L 2847 0 
L 2847 2094 
Q 2847 2600 2669 2842 
Q 2491 3084 2119 3084 
Q 1678 3084 1418 2786 
Q 1159 2488 1159 1978 
L 1159 0 
L 581 0 
L 581 3500 
L 1159 3500 
L 1159 2956 
Q 1356 3278 1631 3431 
Q 1906 3584 2284 3584 
Q 2666 3584 2933 3390 
Q 3200 3197 3328 2828 
z
" transform="scale(0.015625)"/>
     </defs>
     <use xlink:href="#DejaVuSans-72"/>
     <use xlink:href="#DejaVuSans-6f" transform="translate(38.863281 0)"/>
     <use xlink:href="#DejaVuSans-75" transform="translate(100.044922 0)"/>
     <use xlink:href="#DejaVuSans-74" transform="translate(163.423828 0)"/>
     <use xlink:href="#DejaVuSans-65" transform="translate(202.632812 0)"/>
     <use xlink:href="#DejaVuSans-20" transform="translate(264.15625 0)"/>
     <use xlink:href="#DejaVuSans-6d" transform="translate(295.943359 0)"/>
     <use xlink:href="#DejaVuSans-65" transform="translate(393.355469 0)"/>
     <use xlink:href="#DejaVuSans-6d" transform="translate(454.878906 0)"/>
     <use xlink:href="#DejaVuSans-6f" transform="translate(552.291016 0)"/>
     <use xlink:href="#DejaVuSans-72" transform="translate(613.472656 0)"/>
     <use xlink:href="#DejaVuSans-69" transform="translate(654.585938 0)"/>
     <use xlink:href="#DejaVuSans-65" transform="translate(682.369141 0)"/>
     <use xlink:href="#DejaVuSans-73" transform="translate(743.892578 0)"/>
    </g>
   </g>
   <g id="text_4">
    <!-- Recurrent -->
    <g transform="translate(217.403859 161.693859) scale(0.09 -0.09)">
     <defs>
      <path id="DejaVuSans-52" d="M 2841 2188 
Q 3044 2119 3236 1894 
Q 3428 1669 3622 1275 
L 4263 0 
L 3584 0 
L 2988 1197 
Q 2756 1666 2539 1819 
Q 2322 1972 1947 1972 
L 1259 1972 
L 1259 0 
L 628 0 
L 628 4666 
L 2053 4666 
Q 2853 4666 3247 4331 
Q 3641 3997 3641 3322 
Q 3641 2881 3436 2590 
Q 3231 2300 2841 2188 
z
M 1259 4147 
L 1259 2491 
L 2053 2491 
Q 2509 2491 2742 2702 
Q 2975 2913 2975 3322 
Q 2975 3731 2742 3939 
Q 2509 4147 2053 4147 
L 1259 4147 
z
" transform="scale(0.015625)"/>
     </defs>
     <use xlink:href="#DejaVuSans-52"/>
     <use xlink:href="#DejaVuSans-65" transform="translate(64.982422 0)"/>
     <use xlink:href="#DejaVuSans-63" transform="translate(126.505859 0)"/>
     <use xlink:href="#DejaVuSans-75" transform="translate(181.486328 0)"/>
     <use xlink:href="#DejaVuSans-72" transform="translate(244.865234 0)"/>
     <use xlink:href="#DejaVuSans-72" transform="translate(284.228516 0)"/>
     <use xlink:href="#DejaVuSans-65" transform="translate(323.091797 0)"/>
     <use xlink:href="#DejaVuSans-6e" transform="translate(384.615234 0)"/>
     <use xlink:href="#DejaVuSans-74" transform="translate(447.994141 0)"/>
    </g>
    <!-- route execution -->
    <g transform="translate(204.083156 171.771891) scale(0.09 -0.09)">
     <use xlink:href="#DejaVuSans-72"/>
     <use xlink:href="#DejaVuSans-6f" transform="translate(38.863281 0)"/>
     <use xlink:href="#DejaVuSans-75" transform="translate(100.044922 0)"/>
     <use xlink:href="#DejaVuSans-74" transform="translate(163.423828 0)"/>
     <use xlink:href="#DejaVuSans-65" transform="translate(202.632812 0)"/>
     <use xlink:href="#DejaVuSans-20" transform="translate(264.15625 0)"/>
     <use xlink:href="#DejaVuSans-65" transform="translate(295.943359 0)"/>
     <use xlink:href="#DejaVuSans-78" transform="translate(355.716797 0)"/>
     <use xlink:href="#DejaVuSans-65" transform="translate(411.771484 0)"/>
     <use xlink:href="#DejaVuSans-63" transform="translate(473.294922 0)"/>
     <use xlink:href="#DejaVuSans-75" transform="translate(528.275391 0)"/>
     <use xlink:href="#DejaVuSans-74" transform="translate(591.654297 0)"/>
     <use xlink:href="#DejaVuSans-69" transform="translate(630.863281 0)"/>
     <use xlink:href="#DejaVuSans-6f" transform="translate(658.646484 0)"/>
     <use xlink:href="#DejaVuSans-6e" transform="translate(719.828125 0)"/>
    </g>
   </g>
   <g id="text_5">
    <!-- Multi-step route -->
    <g transform="translate(339.80625 161.693859) scale(0.09 -0.09)">
     <defs>
      <path id="DejaVuSans-4d" d="M 628 4666 
L 1569 4666 
L 2759 1491 
L 3956 4666 
L 4897 4666 
L 4897 0 
L 4281 0 
L 4281 4097 
L 3078 897 
L 2444 897 
L 1241 4097 
L 1241 0 
L 628 0 
L 628 4666 
z
" transform="scale(0.015625)"/>
     </defs>
     <use xlink:href="#DejaVuSans-4d"/>
     <use xlink:href="#DejaVuSans-75" transform="translate(86.279297 0)"/>
     <use xlink:href="#DejaVuSans-6c" transform="translate(149.658203 0)"/>
     <use xlink:href="#DejaVuSans-74" transform="translate(177.441406 0)"/>
     <use xlink:href="#DejaVuSans-69" transform="translate(216.650391 0)"/>
     <use xlink:href="#DejaVuSans-2d" transform="translate(244.433594 0)"/>
     <use xlink:href="#DejaVuSans-73" transform="translate(280.517578 0)"/>
     <use xlink:href="#DejaVuSans-74" transform="translate(332.617188 0)"/>
     <use xlink:href="#DejaVuSans-65" transform="translate(371.826172 0)"/>
     <use xlink:href="#DejaVuSans-70" transform="translate(433.349609 0)"/>
     <use xlink:href="#DejaVuSans-20" transform="translate(496.826172 0)"/>
     <use xlink:href="#DejaVuSans-72" transform="translate(528.613281 0)"/>
     <use xlink:href="#DejaVuSans-6f" transform="translate(567.476562 0)"/>
     <use xlink:href="#DejaVuSans-75" transform="translate(628.658203 0)"/>
     <use xlink:href="#DejaVuSans-74" transform="translate(692.037109 0)"/>
     <use xlink:href="#DejaVuSans-65" transform="translate(731.246094 0)"/>
    </g>
    <!-- prediction -->
    <g transform="translate(352.904766 171.771891) scale(0.09 -0.09)">
     <use xlink:href="#DejaVuSans-70"/>
     <use xlink:href="#DejaVuSans-72" transform="translate(63.476562 0)"/>
     <use xlink:href="#DejaVuSans-65" transform="translate(102.339844 0)"/>
     <use xlink:href="#DejaVuSans-64" transform="translate(163.863281 0)"/>
     <use xlink:href="#DejaVuSans-69" transform="translate(227.339844 0)"/>
     <use xlink:href="#DejaVuSans-63" transform="translate(255.123047 0)"/>
     <use xlink:href="#DejaVuSans-74" transform="translate(310.103516 0)"/>
     <use xlink:href="#DejaVuSans-69" transform="translate(349.3125 0)"/>
     <use xlink:href="#DejaVuSans-6f" transform="translate(377.095703 0)"/>
     <use xlink:href="#DejaVuSans-6e" transform="translate(438.277344 0)"/>
    </g>
   </g>
   <g id="patch_7">
    <path d="M 120.797684 76.931437 
Q 132.190857 76.931437 142.354193 76.931437 
" style="fill: none; stroke: #1a1a1a; stroke-width: 1.1; stroke-linecap: round"/>
    <path d="M 138.754193 75.131437 
L 142.354193 76.931437 
L 138.754193 78.731437 
" style="fill: none; stroke: #1a1a1a; stroke-width: 1.1; stroke-linecap: round"/>
   </g>
   <g id="patch_8">
    <path d="M 250.253684 76.931437 
Q 261.646857 76.931437 271.810193 76.931437 
" style="fill: none; stroke: #1a1a1a; stroke-width: 1.1; stroke-linecap: round"/>
    <path d="M 268.210193 75.131437 
L 271.810193 76.931437 
L 268.210193 78.731437 
" style="fill: none; stroke: #1a1a1a; stroke-width: 1.1; stroke-linecap: round"/>
   </g>
   <g id="patch_9">
    <path d="M 317.980661 96.697672 
Q 279.502833 120.591162 242.069793 143.835872 
" style="fill: none; stroke: #1a1a1a; stroke-width: 1.1; stroke-linecap: round"/>
    <path d="M 246.077677 143.465914 
L 242.069793 143.835872 
L 244.178557 140.40759 
" style="fill: none; stroke: #1a1a1a; stroke-width: 1.1; stroke-linecap: round"/>
   </g>
   <g id="patch_10">
    <path d="M 303.821684 164.249437 
Q 315.214857 164.249437 325.378193 164.249437 
" style="fill: none; stroke: #1a1a1a; stroke-width: 1.1; stroke-linecap: round"/>
    <path d="M 321.778193 162.449437 
L 325.378193 164.249437 
L 321.778193 166.049437 
" style="fill: none; stroke: #1a1a1a; stroke-width: 1.1; stroke-linecap: round"/>
   </g>
   <g id="patch_11">
    <path d="M 175.391227 162.865489 
Q 141.120418 129.946339 107.736551 97.879149 
" style="fill: none; stroke: #1a1a1a; stroke-width: 1.1; stroke-linecap: round"/>
    <path d="M 109.085885 101.671154 
L 107.736551 97.879149 
L 111.579755 99.074886 
" style="fill: none; stroke: #1a1a1a; stroke-width: 1.1; stroke-linecap: round"/>
   </g>
   <g id="text_6">
    <!-- Conceptual schematic only; not empirical evidence. -->
    <g style="fill: #404040" transform="translate(38.448 241.576875) scale(0.09 -0.09)">
     <defs>
      <path id="DejaVuSans-68" d="M 3513 2113 
L 3513 0 
L 2938 0 
L 2938 2094 
Q 2938 2591 2744 2837 
Q 2550 3084 2163 3084 
Q 1697 3084 1428 2787 
Q 1159 2491 1159 1978 
L 1159 0 
L 581 0 
L 581 4863 
L 1159 4863 
L 1159 2956 
Q 1366 3272 1645 3428 
Q 1925 3584 2291 3584 
Q 2894 3584 3203 3211 
Q 3513 2838 3513 2113 
z
" transform="scale(0.015625)"/>
      <path id="DejaVuSans-79" d="M 2059 -325 
Q 1816 -950 1584 -1140 
Q 1353 -1331 966 -1331 
L 506 -1331 
L 506 -850 
L 844 -850 
Q 1081 -850 1212 -737 
Q 1344 -625 1503 -206 
L 1606 56 
L 191 3500 
L 800 3500 
L 1894 763 
L 2988 3500 
L 3597 3500 
L 2059 -325 
z
" transform="scale(0.015625)"/>
      <path id="DejaVuSans-3b" d="M 750 3309 
L 1409 3309 
L 1409 2516 
L 750 2516 
L 750 3309 
z
M 750 794 
L 1409 794 
L 1409 256 
L 897 -744 
L 494 -744 
L 750 256 
L 750 794 
z
" transform="scale(0.015625)"/>
      <path id="DejaVuSans-76" d="M 191 3500 
L 800 3500 
L 1894 563 
L 2988 3500 
L 3597 3500 
L 2284 0 
L 1503 0 
L 191 3500 
z
" transform="scale(0.015625)"/>
      <path id="DejaVuSans-2e" d="M 684 794 
L 1344 794 
L 1344 0 
L 684 0 
L 684 794 
z
" transform="scale(0.015625)"/>
     </defs>
     <use xlink:href="#DejaVuSans-43"/>
     <use xlink:href="#DejaVuSans-6f" transform="translate(69.824219 0)"/>
     <use xlink:href="#DejaVuSans-6e" transform="translate(131.005859 0)"/>
     <use xlink:href="#DejaVuSans-63" transform="translate(194.384766 0)"/>
     <use xlink:href="#DejaVuSans-65" transform="translate(249.365234 0)"/>
     <use xlink:href="#DejaVuSans-70" transform="translate(310.888672 0)"/>
     <use xlink:href="#DejaVuSans-74" transform="translate(374.365234 0)"/>
     <use xlink:href="#DejaVuSans-75" transform="translate(413.574219 0)"/>
     <use xlink:href="#DejaVuSans-61" transform="translate(476.953125 0)"/>
     <use xlink:href="#DejaVuSans-6c" transform="translate(538.232422 0)"/>
     <use xlink:href="#DejaVuSans-20" transform="translate(566.015625 0)"/>
     <use xlink:href="#DejaVuSans-73" transform="translate(597.802734 0)"/>
     <use xlink:href="#DejaVuSans-63" transform="translate(649.902344 0)"/>
     <use xlink:href="#DejaVuSans-68" transform="translate(704.882812 0)"/>
     <use xlink:href="#DejaVuSans-65" transform="translate(768.261719 0)"/>
     <use xlink:href="#DejaVuSans-6d" transform="translate(829.785156 0)"/>
     <use xlink:href="#DejaVuSans-61" transform="translate(927.197266 0)"/>
     <use xlink:href="#DejaVuSans-74" transform="translate(988.476562 0)"/>
     <use xlink:href="#DejaVuSans-69" transform="translate(1027.685547 0)"/>
     <use xlink:href="#DejaVuSans-63" transform="translate(1055.46875 0)"/>
     <use xlink:href="#DejaVuSans-20" transform="translate(1110.449219 0)"/>
     <use xlink:href="#DejaVuSans-6f" transform="translate(1142.236328 0)"/>
     <use xlink:href="#DejaVuSans-6e" transform="translate(1203.417969 0)"/>
     <use xlink:href="#DejaVuSans-6c" transform="translate(1266.796875 0)"/>
     <use xlink:href="#DejaVuSans-79" transform="translate(1294.580078 0)"/>
     <use xlink:href="#DejaVuSans-3b" transform="translate(1353.759766 0)"/>
     <use xlink:href="#DejaVuSans-20" transform="translate(1387.451172 0)"/>
     <use xlink:href="#DejaVuSans-6e" transform="translate(1419.238281 0)"/>
     <use xlink:href="#DejaVuSans-6f" transform="translate(1482.617188 0)"/>
     <use xlink:href="#DejaVuSans-74" transform="translate(1543.798828 0)"/>
     <use xlink:href="#DejaVuSans-20" transform="translate(1583.007812 0)"/>
     <use xlink:href="#DejaVuSans-65" transform="translate(1614.794922 0)"/>
     <use xlink:href="#DejaVuSans-6d" transform="translate(1676.318359 0)"/>
     <use xlink:href="#DejaVuSans-70" transform="translate(1773.730469 0)"/>
     <use xlink:href="#DejaVuSans-69" transform="translate(1837.207031 0)"/>
     <use xlink:href="#DejaVuSans-72" transform="translate(1864.990234 0)"/>
     <use xlink:href="#DejaVuSans-69" transform="translate(1906.103516 0)"/>
     <use xlink:href="#DejaVuSans-63" transform="translate(1933.886719 0)"/>
     <use xlink:href="#DejaVuSans-61" transform="translate(1988.867188 0)"/>
     <use xlink:href="#DejaVuSans-6c" transform="translate(2050.146484 0)"/>
     <use xlink:href="#DejaVuSans-20" transform="translate(2077.929688 0)"/>
     <use xlink:href="#DejaVuSans-65" transform="translate(2109.716797 0)"/>
     <use xlink:href="#DejaVuSans-76" transform="translate(2171.240234 0)"/>
     <use xlink:href="#DejaVuSans-69" transform="translate(2230.419922 0)"/>
     <use xlink:href="#DejaVuSans-64" transform="translate(2258.203125 0)"/>
     <use xlink:href="#DejaVuSans-65" transform="translate(2321.679688 0)"/>
     <use xlink:href="#DejaVuSans-6e" transform="translate(2383.203125 0)"/>
     <use xlink:href="#DejaVuSans-63" transform="translate(2446.582031 0)"/>
     <use xlink:href="#DejaVuSans-65" transform="translate(2501.5625 0)"/>
     <use xlink:href="#DejaVuSans-2e" transform="translate(2563.085938 0)"/>
    </g>
   </g>
   <g id="text_7">
    <!-- World labels may be supplied or symbolically selected from transition cues. -->
    <g style="fill: #404040" transform="translate(38.448 258.208875) scale(0.09 -0.09)">
     <defs>
      <path id="DejaVuSans-66" d="M 2375 4863 
L 2375 4384 
L 1825 4384 
Q 1516 4384 1395 4259 
Q 1275 4134 1275 3809 
L 1275 3500 
L 2222 3500 
L 2222 3053 
L 1275 3053 
L 1275 0 
L 697 0 
L 697 3053 
L 147 3053 
L 147 3500 
L 697 3500 
L 697 3744 
Q 697 4328 969 4595 
Q 1241 4863 1831 4863 
L 2375 4863 
z
" transform="scale(0.015625)"/>
     </defs>
     <use xlink:href="#DejaVuSans-57"/>
     <use xlink:href="#DejaVuSans-6f" transform="translate(93.001953 0)"/>
     <use xlink:href="#DejaVuSans-72" transform="translate(154.183594 0)"/>
     <use xlink:href="#DejaVuSans-6c" transform="translate(195.296875 0)"/>
     <use xlink:href="#DejaVuSans-64" transform="translate(223.080078 0)"/>
     <use xlink:href="#DejaVuSans-20" transform="translate(286.556641 0)"/>
     <use xlink:href="#DejaVuSans-6c" transform="translate(318.34375 0)"/>
     <use xlink:href="#DejaVuSans-61" transform="translate(346.126953 0)"/>
     <use xlink:href="#DejaVuSans-62" transform="translate(407.40625 0)"/>
     <use xlink:href="#DejaVuSans-65" transform="translate(470.882812 0)"/>
     <use xlink:href="#DejaVuSans-6c" transform="translate(532.40625 0)"/>
     <use xlink:href="#DejaVuSans-73" transform="translate(560.189453 0)"/>
     <use xlink:href="#DejaVuSans-20" transform="translate(612.289062 0)"/>
     <use xlink:href="#DejaVuSans-6d" transform="translate(644.076172 0)"/>
     <use xlink:href="#DejaVuSans-61" transform="translate(741.488281 0)"/>
     <use xlink:href="#DejaVuSans-79" transform="translate(802.767578 0)"/>
     <use xlink:href="#DejaVuSans-20" transform="translate(861.947266 0)"/>
     <use xlink:href="#DejaVuSans-62" transform="translate(893.734375 0)"/>
     <use xlink:href="#DejaVuSans-65" transform="translate(957.210938 0)"/>
     <use xlink:href="#DejaVuSans-20" transform="translate(1018.734375 0)"/>
     <use xlink:href="#DejaVuSans-73" transform="translate(1050.521484 0)"/>
     <use xlink:href="#DejaVuSans-75" transform="translate(1102.621094 0)"/>
     <use xlink:href="#DejaVuSans-70" transform="translate(1166 0)"/>
     <use xlink:href="#DejaVuSans-70" transform="translate(1229.476562 0)"/>
     <use xlink:href="#DejaVuSans-6c" transform="translate(1292.953125 0)"/>
     <use xlink:href="#DejaVuSans-69" transform="translate(1320.736328 0)"/>
     <use xlink:href="#DejaVuSans-65" transform="translate(1348.519531 0)"/>
     <use xlink:href="#DejaVuSans-64" transform="translate(1410.042969 0)"/>
     <use xlink:href="#DejaVuSans-20" transform="translate(1473.519531 0)"/>
     <use xlink:href="#DejaVuSans-6f" transform="translate(1505.306641 0)"/>
     <use xlink:href="#DejaVuSans-72" transform="translate(1566.488281 0)"/>
     <use xlink:href="#DejaVuSans-20" transform="translate(1607.601562 0)"/>
     <use xlink:href="#DejaVuSans-73" transform="translate(1639.388672 0)"/>
     <use xlink:href="#DejaVuSans-79" transform="translate(1691.488281 0)"/>
     <use xlink:href="#DejaVuSans-6d" transform="translate(1750.667969 0)"/>
     <use xlink:href="#DejaVuSans-62" transform="translate(1848.080078 0)"/>
     <use xlink:href="#DejaVuSans-6f" transform="translate(1911.556641 0)"/>
     <use xlink:href="#DejaVuSans-6c" transform="translate(1972.738281 0)"/>
     <use xlink:href="#DejaVuSans-69" transform="translate(2000.521484 0)"/>
     <use xlink:href="#DejaVuSans-63" transform="translate(2028.304688 0)"/>
     <use xlink:href="#DejaVuSans-61" transform="translate(2083.285156 0)"/>
     <use xlink:href="#DejaVuSans-6c" transform="translate(2144.564453 0)"/>
     <use xlink:href="#DejaVuSans-6c" transform="translate(2172.347656 0)"/>
     <use xlink:href="#DejaVuSans-79" transform="translate(2200.130859 0)"/>
     <use xlink:href="#DejaVuSans-20" transform="translate(2259.310547 0)"/>
     <use xlink:href="#DejaVuSans-73" transform="translate(2291.097656 0)"/>
     <use xlink:href="#DejaVuSans-65" transform="translate(2343.197266 0)"/>
     <use xlink:href="#DejaVuSans-6c" transform="translate(2404.720703 0)"/>
     <use xlink:href="#DejaVuSans-65" transform="translate(2432.503906 0)"/>
     <use xlink:href="#DejaVuSans-63" transform="translate(2494.027344 0)"/>
     <use xlink:href="#DejaVuSans-74" transform="translate(2549.007812 0)"/>
     <use xlink:href="#DejaVuSans-65" transform="translate(2588.216797 0)"/>
     <use xlink:href="#DejaVuSans-64" transform="translate(2649.740234 0)"/>
     <use xlink:href="#DejaVuSans-20" transform="translate(2713.216797 0)"/>
     <use xlink:href="#DejaVuSans-66" transform="translate(2745.003906 0)"/>
     <use xlink:href="#DejaVuSans-72" transform="translate(2780.208984 0)"/>
     <use xlink:href="#DejaVuSans-6f" transform="translate(2819.072266 0)"/>
     <use xlink:href="#DejaVuSans-6d" transform="translate(2880.253906 0)"/>
     <use xlink:href="#DejaVuSans-20" transform="translate(2977.666016 0)"/>
     <use xlink:href="#DejaVuSans-74" transform="translate(3009.453125 0)"/>
     <use xlink:href="#DejaVuSans-72" transform="translate(3048.662109 0)"/>
     <use xlink:href="#DejaVuSans-61" transform="translate(3089.775391 0)"/>
     <use xlink:href="#DejaVuSans-6e" transform="translate(3151.054688 0)"/>
     <use xlink:href="#DejaVuSans-73" transform="translate(3214.433594 0)"/>
     <use xlink:href="#DejaVuSans-69" transform="translate(3266.533203 0)"/>
     <use xlink:href="#DejaVuSans-74" transform="translate(3294.316406 0)"/>
     <use xlink:href="#DejaVuSans-69" transform="translate(3333.525391 0)"/>
     <use xlink:href="#DejaVuSans-6f" transform="translate(3361.308594 0)"/>
     <use xlink:href="#DejaVuSans-6e" transform="translate(3422.490234 0)"/>
     <use xlink:href="#DejaVuSans-20" transform="translate(3485.869141 0)"/>
     <use xlink:href="#DejaVuSans-63" transform="translate(3517.65625 0)"/>
     <use xlink:href="#DejaVuSans-75" transform="translate(3572.636719 0)"/>
     <use xlink:href="#DejaVuSans-65" transform="translate(3636.015625 0)"/>
     <use xlink:href="#DejaVuSans-73" transform="translate(3697.539062 0)"/>
     <use xlink:href="#DejaVuSans-2e" transform="translate(3749.638672 0)"/>
    </g>
   </g>
   <g id="text_8">
    <!-- Context-indexed route memory benchmark setup -->
    <g transform="translate(106.570312 14.798437) scale(0.1 -0.1)">
     <defs>
      <path id="DejaVuSans-6b" d="M 581 4863 
L 1159 4863 
L 1159 1991 
L 2875 3500 
L 3609 3500 
L 1753 1863 
L 3688 0 
L 2938 0 
L 1159 1709 
L 1159 0 
L 581 0 
L 581 4863 
z
" transform="scale(0.015625)"/>
     </defs>
     <use xlink:href="#DejaVuSans-43"/>
     <use xlink:href="#DejaVuSans-6f" transform="translate(69.824219 0)"/>
     <use xlink:href="#DejaVuSans-6e" transform="translate(131.005859 0)"/>
     <use xlink:href="#DejaVuSans-74" transform="translate(194.384766 0)"/>
     <use xlink:href="#DejaVuSans-65" transform="translate(233.59375 0)"/>
     <use xlink:href="#DejaVuSans-78" transform="translate(293.367188 0)"/>
     <use xlink:href="#DejaVuSans-74" transform="translate(352.546875 0)"/>
     <use xlink:href="#DejaVuSans-2d" transform="translate(391.755859 0)"/>
     <use xlink:href="#DejaVuSans-69" transform="translate(427.839844 0)"/>
     <use xlink:href="#DejaVuSans-6e" transform="translate(455.623047 0)"/>
     <use xlink:href="#DejaVuSans-64" transform="translate(519.001953 0)"/>
     <use xlink:href="#DejaVuSans-65" transform="translate(582.478516 0)"/>
     <use xlink:href="#DejaVuSans-78" transform="translate(642.251953 0)"/>
     <use xlink:href="#DejaVuSans-65" transform="translate(698.306641 0)"/>
     <use xlink:href="#DejaVuSans-64" transform="translate(759.830078 0)"/>
     <use xlink:href="#DejaVuSans-20" transform="translate(823.306641 0)"/>
     <use xlink:href="#DejaVuSans-72" transform="translate(855.09375 0)"/>
     <use xlink:href="#DejaVuSans-6f" transform="translate(893.957031 0)"/>
     <use xlink:href="#DejaVuSans-75" transform="translate(955.138672 0)"/>
     <use xlink:href="#DejaVuSans-74" transform="translate(1018.517578 0)"/>
     <use xlink:href="#DejaVuSans-65" transform="translate(1057.726562 0)"/>
     <use xlink:href="#DejaVuSans-20" transform="translate(1119.25 0)"/>
     <use xlink:href="#DejaVuSans-6d" transform="translate(1151.037109 0)"/>
     <use xlink:href="#DejaVuSans-65" transform="translate(1248.449219 0)"/>
     <use xlink:href="#DejaVuSans-6d" transform="translate(1309.972656 0)"/>
     <use xlink:href="#DejaVuSans-6f" transform="translate(1407.384766 0)"/>
     <use xlink:href="#DejaVuSans-72" transform="translate(1468.566406 0)"/>
     <use xlink:href="#DejaVuSans-79" transform="translate(1509.679688 0)"/>
     <use xlink:href="#DejaVuSans-20" transform="translate(1568.859375 0)"/>
     <use xlink:href="#DejaVuSans-62" transform="translate(1600.646484 0)"/>
     <use xlink:href="#DejaVuSans-65" transform="translate(1664.123047 0)"/>
     <use xlink:href="#DejaVuSans-6e" transform="translate(1725.646484 0)"/>
     <use xlink:href="#DejaVuSans-63" transform="translate(1789.025391 0)"/>
     <use xlink:href="#DejaVuSans-68" transform="translate(1844.005859 0)"/>
     <use xlink:href="#DejaVuSans-6d" transform="translate(1907.384766 0)"/>
     <use xlink:href="#DejaVuSans-61" transform="translate(2004.796875 0)"/>
     <use xlink:href="#DejaVuSans-72" transform="translate(2066.076172 0)"/>
     <use xlink:href="#DejaVuSans-6b" transform="translate(2107.189453 0)"/>
     <use xlink:href="#DejaVuSans-20" transform="translate(2165.099609 0)"/>
     <use xlink:href="#DejaVuSans-73" transform="translate(2196.886719 0)"/>
     <use xlink:href="#DejaVuSans-65" transform="translate(2248.986328 0)"/>
     <use xlink:href="#DejaVuSans-74" transform="translate(2310.509766 0)"/>
     <use xlink:href="#DejaVuSans-75" transform="translate(2349.71875 0)"/>
     <use xlink:href="#DejaVuSans-70" transform="translate(2413.097656 0)"/>
    </g>
   </g>
  </g>
 </g>
 <defs>
  <clipPath id="p8024add3b9">
   <rect x="7.2" y="20.798437" width="446.4" height="249.48"/>
  </clipPath>
 </defs>
</svg>
